<?xml version="1.0" encoding="utf-8"?>
<!-- Generator: Adobe Illustrator 18.1.1, SVG Export Plug-In . SVG Version: 6.00 Build 0)  -->
<svg version="1.1" id="Layer_1" xmlns="http://www.w3.org/2000/svg" xmlns:xlink="http://www.w3.org/1999/xlink" x="0px" y="0px"
	 viewBox="0 0 1500 1500" enable-background="new 0 0 1500 1500" xml:space="preserve">
<path fill="#FFFFFF" d="M491.5,966.1c-0.3,4.9-0.7,9.8-0.9,14.6c-1,20.1-8.8,36.9-24.3,49.8c-6.6,5.5-14.1,8.9-23.1,7.7
	c-11.5-1.6-18.7-10.7-16.7-22.2c1.6-9.4,5.4-18,11-25.7c8.2-11,15.1-22.6,18.4-36c2.7-10.8,0.8-21.3-2.7-31.5
	c-1.1-3.1-4.6-3.7-6.9-1.2c-1.9,2.1-3.3,4.7-4.4,7.3c-3.7,8.7-5.4,17.9-5.9,27.4c-0.4,7.1-1.9,14-7.2,19.4c-5.1,5-10.7,8.2-18.3,6.2
	c-3-0.8-6.1-1.3-9.2-1.8c-2.6-0.3-5.9-0.5-6.5,2.6c-0.3,1.7,1.4,4.2,2.9,5.6c4.2,3.9,8.4,7.6,10.8,13.1c2,4.7,2.8,9.3,3,14.4
	c0.3,7.8-3.3,12.9-9.5,16.7c-2,1.2-4.3,2.1-6.1,3.5c-9.7,7.6-20.7,6.6-32.1,6c-16.4-0.8-25.3-12.4-35.1-22.6
	c-4.4-4.6-3.7-11.3-1.4-17.1c2.3-5.9,5.7-11.1,11.4-14.6c3.8-2.3,7.9-4.4,6.3-10.2c-1.4-5.1-5.9-9.4-11.7-10.1
	c-9.3-1.1-16.3,3.7-21.6,10.3c-5.2,6.5-9.1,14-11,22.3c-1.6,7-1.1,13.5,3.4,19.3c3.6,4.8,7.4,9.5,10.7,14.5
	c6.5,10.1,6.9,22.1-0.1,29.2c-9.8,9.8-20.8,17.3-36.2,14.2c-12.6-2.6-32.7-19.3-38.3-31c-6.5-13.7-5.1-26.4,1.6-39
	c4.9-9.3,0.3-15.3-7.9-19.4c-1.6-0.8-3.5-1-5.3-1.5c-11.6-3.1-17-9.2-17.8-20.9c-0.8-11.4-1.3-22.9-1.9-34.4
	c-0.5-9.4-1.2-18.7-1.5-28.1c-0.1-3.4,0.3-6.8,1.1-10.1c2.6-10.3,10.2-14.5,20.3-11.2c3.2,1,6,3.2,8.9,4.9c1.8,1.1,3.4,2.4,5.3,3.4
	c1.4,0.7,2.9,1.1,4.7,1.7c1.4-6.3-1.3-10.4-6-13.3c-6-3.7-12.2-7.1-18.4-10.4c-15.2-8.1-22.9-19.9-22.1-37.9
	c1.3-27.1,2.4-54.2,0.3-81.4c-1.6-20-1.2-40.2-1.8-60.3c-0.2-7-1.1-14.1-1.2-21.1c0-4.1,0.3-8.4,1.7-12.3c3.1-9,11.6-12.4,20.2-8.1
	c4.1,2.1,7.6,5.3,11.6,8.1c4.1-5.3,3.1-10.6-0.1-15.3c-4.2-6.2-9.2-12-13.9-17.9c-1.5-1.8-3.3-3.3-4.9-5.1
	c-7.4-8.5-11.8-18-11.5-29.8c0.5-21.7-0.2-43.3-0.1-65c0-6.2,0.6-12.5,1.6-18.7c0.7-4,2.2-8.1,4-11.8c3.3-6.9,9.2-9.7,16.7-9.1
	c7.5,0.6,13.1,4.4,15.2,11.6c1.6,5.4,1.9,11.3,2.1,17c0.4,17.2,0.5,34.5,0.5,51.7c0,10.2,4.2,19.3,8,28.4c1.1,2.7,3.6,5,5.9,7.2
	c3.8,3.6,7.7,7.1,11.8,10.3c12.5,9.9,17,23.2,17.1,38.6c0.1,11.9-4.5,21.8-12.6,30.2c-1.5,1.5-3,2.9-4.6,4.3
	c-7,6.1-11.5,13.6-11.5,23.1c0,12.2-0.6,24.6,0.7,36.7c1.9,18.1,7.5,21.2,24.4,15.1c2.4-0.9,4.4-2.7,6.5-4.2
	c13-9,26.2-4.4,30.7,10.6c2.9,9.6-0.7,17-10.5,22.6c-7.9,4.5-15.9,9-23.1,14.5c-3.9,3-7,7.8-8.9,12.5c-3.7,9.2-3.2,19.1-1.2,28.6
	c2,9.1,6.1,11.2,13.8,10.6c4.9-0.4,9.8-1.1,14.7-1.9c16.8-2.9,29,17.7,23.1,32.8c-1.8,4.5-4.8,8.7-7.8,12.6c-2.9,3.7-7.2,5.1-11.9,5
	c-8.9-0.3-16.9,2.8-24.8,6.4c-8.6,3.9-14.4,19.6-9.2,27c2.8,4,8.6,6.9,13.6,8.1c4.9,1.1,7.9-3.2,10.2-7.9c5.9-11.5,15.6-18,28.6-19
	c6.8-0.5,12.9,1.5,18,6.2c6.5,6,13,12,19.6,18c2.1,1.9,4.1,4,6.5,5.7c2.7,1.9,5.1,1.1,6.1-2.1c1.7-5.4,2.3-11-1.9-15.6
	c-3.7-4-8-7.5-12-11.2c-2.9-2.6-6.1-4.9-8.5-8c-7.9-10.3-7.9-21.1-1.7-32.2c1.5-2.7,3.2-5.4,4.4-8.3c3.1-7,1.6-13.2-5.1-16.7
	c-6.2-3.1-13-5.7-19.8-6.8c-13.7-2.2-19.4-11.4-19.6-24c-0.1-11.7,11.7-23,23.5-22.8c6.2,0.1,12.5,0.9,18.7,1.6
	c16.2,2,29.8-3,40.3-15.6c6.3-7.6,11.9-15.9,18.5-23.1c11-11.9,24-19.9,41.3-17.8c5.7,0.7,10.5,2.9,14.2,7.4
	c2.7,3.2,5.4,6.3,8.4,9.3c4.2,4.2,9.3,4.9,14.3,2.1c11.5-6.6,23.2-4.3,34.9-0.9c10.2,3,16.2,10.6,18.8,20.4
	c2.8,10.7,4.4,21.7-3.6,31.4c-5.6,6.9-13.1,8.5-20.9,4.3c-0.7-0.4-1.4-0.7-2-1.2c-7-5.2-9.5-7.2-17.9,3.6c-3,3.9-5.7,8.1-8.8,12
	c-6.7,8.4-15.8,10.7-26,9.7c-6.2-0.7-12-7.4-12.4-14.3c-0.2-2.8,0.4-5.7,0.5-8.6c0.2-3.6,0.6-7.3,0.6-10.9c-0.1-2.8-0.3-6.6-3.8-6.8
	c-2.7-0.1-5.8,1.7-8.2,3.3c-1.4,0.9-1.9,3-2.7,4.7c-2.1,4.2-4.1,8.4-6.2,12.7c-4.7,9.8-12.7,15.6-22.8,19c-1.7,0.6-3.6,0.9-5.3,1.5
	c-4.8,1.8-6.8,4.5-6.7,9.4c0.3,9.5,2.7,18.6,6.1,27.4c2.6,6.8,9,7.1,13.3,1.1c1.1-1.5,2-3.1,2.8-4.7c5.6-10.7,14.7-15,26.4-14.7
	c10,0.2,19.1,3.5,26.7,9.7c3.6,2.9,6.3,6.9,9,10.7c3,4.3,6.6,4.3,11.3,2.6c0-2.1,0.1-4.1,0-6.2c-0.2-6.3-0.9-12.6-0.6-18.8
	c0.8-14.1,12.6-24.6,26.6-24.1c7.6,0.3,15.1,1.1,22.7,1.3c9.6,0.2,19.2,0.1,28.9,0.1c7.1-0.1,14.1-0.5,21.1-0.4
	c17.2,0.3,34.4,0.9,51.7,1.3c3.9,0.1,7.8,0.2,11.6-0.2c2.5-0.3,5.2-1.1,7.3-2.4c4.9-2.9,6.7-11.7-1.3-14.8c-7.8-3-15.4-6.3-23-9.9
	c-4.8-2.3-10.4-3.8-12.2-10c-2.1-7.3-1.8-14.8,1.2-21.5c2.8-6.2,8.4-10.1,15.5-10.2c4.4-0.1,8.8,0.8,13.2,1.2
	c2.8,0.3,5.7,0.8,8.5,0.7c13.7-0.5,22.3-12.4,18.9-26.3c-4.4-1.4-8.1,0.7-11.7,2.7c-3.2,1.7-6.1,4.1-9.2,5.9
	c-11.8,7-23.1,5.5-32.8-4c-6.2-6-12.5-11.8-19.1-17.3c-2.5-2.1-5.7-3.8-8.8-4.9c-5.3-1.8-9.4,0.1-12,4.7c-2.8,4.8-1.9,9.2,2.8,12.1
	c4,2.4,8.4,4.3,12.4,6.7c11,6.6,12.7,18.1,4.1,27.8c-1.5,1.8-3.1,3.6-4.6,5.4c-8.5,10.1-19.3,13.7-32.2,12
	c-5.8-0.8-10.4-3.6-13.4-8.6c-2.1-3.6-4-7.4-5.4-11.2c-2.6-7-7.1-12.1-13.3-15.9c-0.4-0.3-0.9-0.5-1.4-0.8c-14.5-9.3-17-21.4-6.5-35
	c9.8-12.7,20.7-24.2,35.2-31.7c0.7-0.4,1.4-0.7,2-1.2c8.3-7.3,18.5-9.4,29-9.7c4.6-0.1,9.4,0.5,13.9,1.5c9.6,2.3,19.1,5.4,28.7,7.6
	c11.9,2.8,24,5,36.4,3.9c2.6-0.2,5.2,0.5,7.8,0.4c5-0.3,7.5-2.5,8.3-6.8c0.8-4.6-0.2-7.9-4.8-9.5c-6.6-2.3-13.5-4.3-20.4-5
	c-15.3-1.6-30.7-2.2-46-3.3c-6.2-0.5-12.6-0.7-18.6-2c-6.9-1.4-11.6-6.3-13-13.2c-1.4-7.5,1.4-14,7.4-18.7
	c5.9-4.7,13.1-6.8,20.5-6.8c8.3-0.1,16.7,0.6,25,1.1c14.8,0.9,29.7,1.9,44.5,3c14.3,1,28.6,1.9,42.5,6.3
	c12.9,4.1,18.2,13.7,18.9,25.8c0.4,7.5,3.5,11.1,9.7,14.2c14.9,7.4,30.8,11.3,46.9,14.6c5.1,1.1,10.3,1.8,15.4,3
	c17.2,4.1,23,24.7,10.7,37.6c-10.1,10.5-22.8,11.5-35.4,3.2c-6.1-4-12.4-7.7-19-10.9c-3.2-1.6-6.9-2.3-10.5-2.7
	c-22.5-2.7-33.5,14.6-38.5,30.6c-1.3,4.1-0.8,8.8,2.7,11.6c3.9,3.2,8.7,4.5,13.9,2.4c3.9-1.6,7.1-3.8,9.9-7.2
	c11.6-14.6,27.1-18.1,44.7-11.4c10.8,4.1,21.4,8.4,30.5,15.6c4.9,3.8,10.1,1.4,15.1,0.6c14.6-2.4,27.4-9.7,41-14.8
	c4.4-1.6,8.9-3,13.5-3.7c9.7-1.5,18.4,3.3,22.2,12.3c4.7,11,9.2,22.2,13.4,33.4c1.9,5,4.5,7.9,10.1,8c10.7,0.1,20.9-1.3,29.4-8.4
	c6.2-5.2,6.3-9.3,0.9-15.2c-1.8-1.9-3.7-3.7-5.3-5.8c-5.6-7-6.4-17.9-1.8-25.7c3-5.1,6.4-10.1,9.7-15.1c0.7-1.1,1.4-2.2,2-3.3
	c1.4-2.9,2.4-6-0.4-8.7c-2.5-2.3-5.4-2.9-8.7-1.7c-7.2,2.7-12.7,6.7-14.6,14.9c-0.9,3.9-2.8,7.9-5.2,11.2
	c-6.6,9.1-18.9,8.2-24.4-1.7c-2-3.6-3.6-7.5-5.2-11.4c-4.6-11.3-9.5-13.3-20.7-8.4c-0.5,0.2-0.9,0.5-1.4,0.7
	c-17.1,8.5-35.6,2-44.1-15.1c-3.8-7.7-5.2-15.2-1.2-23.2c5.9-11.8,15.8-16.4,29.4-12.6c5.9,1.7,11.8,4.2,17.1,7.5
	c6,3.7,11.3,2,17,0.9c1.2-8.7,0.8-8.7-6.1-11.2c-12.5-4.5-25-9.3-34.6-19.2c-1.1-1.1-2.3-1.9-3.8-3.1c-2,1.1-3.8,2.1-5.5,3.2
	c-10.6,6.6-20.9,14-32,19.6c-15.1,7.7-31.4,10.9-48.5,7.6c-10.6-2-22.1-14.3-23-25.1c-0.5-6.3,2.4-11.3,7.6-14.5
	c5.5-3.5,11.2-6.7,17.1-9.5c11.6-5.5,23.2-10.7,35-15.8c6-2.6,12.2-4.6,18.3-6.9c8.3-3.1,16.6-6.2,22.4-13.5c1.3-1.6,3.1-2.8,4.8-4
	c13.1-8.8,25.4-5.4,32.2,8.9c0.4,0.9,0.8,1.9,1.3,2.9c2.2,4,6.4,7,9,6.4c3.5-0.8,6.6-4.7,7.2-9.4c1-7.8-0.4-15.5-4.7-21.8
	c-8.1-11.8-7.3-23.5-2.2-35.8c4-9.8,11.6-15.2,22-16.5c6.1-0.8,11.2,1.2,15.7,5.4c7,6.7,10.9,14.4,10.5,24.3c-0.3,6,0,12,0.6,18
	c0.8,7.2,4.4,10.7,11.5,11.7c7.2,0.9,14.5,1.3,21.8,2.1c16.4,1.9,26.6,16.5,22.7,32.6c-4.5,18.6-25.1,26.9-42.1,17
	c-2.7-1.6-5.4-3.1-8.4-4.1c-7.4-2.3-13.2,1.7-13.6,9.3c-0.4,6.9,1.2,13.5,4.1,19.7c1.8,3.8,3.6,7.5,5.3,11.3
	c8.4,2.8,9.1,2.6,14.3-4.5c2.3-3.2,4.3-6.6,7-9.4c10.6-10.9,22.6-17.8,38.5-12.7c1.2,0.4,2.6,0.7,3.8,0.6
	c10.3-0.6,14.5,0.4,13.9-13.9c-0.4-9.9-3.6-19.6-1.6-29.6c2.6-12.8,6.5-24.6,18.2-32.4c10.6-7,22.9-7.7,33.7-0.8
	c3.1,1.9,5.9,4.3,8.7,6.6c5.4,4.4,11.5,6.9,18.1,4.1c6.5-2.7,11.2-7.6,12.3-15.1c0.5-3.4,1.1-6.7,1.2-10.1c0.2-5.9-1-11.4-5.5-15.8
	c-4.9-4.6-6.6-10.5-6.4-17c0.2-5.2,0-10.5,0.7-15.6c1.8-12.9,9.9-20.9,22.8-21.7c8-0.5,16.1,0.1,24.1,1c8.3,0.9,13.9-4.1,12.4-12.3
	c-1.7-9.6-8.9-15-16.4-19.9c-1.4-0.9-4-0.1-6,0.3c-2.8,0.7-5.5,1.8-8.1,2.8c-12.6,4.7-29.4-3.3-36.3-13.9
	c-9.4-14.4-1.9-32.5,14.8-35.8c6.3-1.3,12.6-0.8,18.4,1.9c6.4,3,12.9,1.4,19.1,0c2.4-0.5,4.9-3,6.3-5.3c6.4-10.7,7.7-21.8,2.8-33.7
	c-3.9-9.4-7.4-19.1-5.1-29.6c0.8-3.7,2.2-7.6,4.4-10.7c4.9-6.7,10.6-12.8,18.2-16.8c2.7-1.4,5.2-3.5,7.6-5.5
	c3.3-2.7,4.5-6.1,3.9-10.4c-1.9-13-4.9-25.6-9.6-37.9c-2.1-5.4-5.4-10-10.1-13.7c-4.8-3.9-9.2-8.4-13.7-12.6
	c-1.5-1.4-2.7-3.3-4.5-4.3c-4.1-2.4-7.5-0.5-7.3,4.2c0.5,12.2,1.5,15,12.5,20.1c1.6,0.8,3.4,1.3,5.2,1.8
	c13.9,3.3,21.1,19.4,14.6,33.2c-2.5,5.3-6.6,10.2-11.1,14c-6.3,5.3-13.8,3.8-20.5,0c-4.1-2.3-7.9-5.1-11.7-7.8
	c-3.1-2.2-6.1-2.1-9.4-0.3c-6.8,3.7-14.1,5-21.9,4.9c-12.5-0.2-19.9-11.2-18.2-21.5c1.7-10.2,4.9-19.7,11.7-27.8
	c5.8-7,5.8-8.5,0.8-16.6c-1.2-2-2.5-4-3.3-6.2c-5.3-14.2,0.1-26.7,14.5-33.5c6.1-2.9,7.3-2.2,5.9-11.2c-1.2-7.9-5-14.2-11-19.3
	c-6.6-5.5-13.4-10.8-20-16.3c-2.8-2.3-5.4-4.8-8.2-7.1c-10.9-8.9-22.9-16.2-35.5-22.6c-24.4-12.5-50.6-20.5-76.1-30.4
	c-10.7-4.1-21.3-8.1-32-12.2c-10.7-4.1-21.4-8.4-32.1-12.3c-11-4-22-8.1-33.1-11.6c-11.2-3.6-22.7-3-34-0.4
	c-3.1,0.7-5.9,3.9-8.4,6.5c-2.8,3-4.9,6.8-7.6,9.9c-9.7,11.3-29.1,9.8-38.1-1.5c-2.7-3.4-3.5-8.6-4-13.2
	c-1.4-12.8-2.6-15.2-14.8-18.6c-10.7-3-21.7-3.1-32,2.2c-2,1-4,2.7-5.1,4.6c-2.1,3.5-0.5,6.8,3.6,7.3c3.3,0.5,6.8,0.4,10.2,0.5
	c9.4,0.3,17.1,4.5,23.7,10.7c6.3,5.9,7,18.9,1.7,26c-2.2,2.9-4.5,5.7-6.6,8.8c-3.3,4.8-3.1,8.2,0.2,12.8c8.7,11.9,18.5,10.2,27.6,1
	c3.4-3.5,6.1-7.8,8.9-11.9c6.4-9.2,14.5-15.6,25.8-17.5c0.5-0.1,1-0.2,1.5-0.4c20.5-8,38.1-1.5,54.7,10.7c10.9,8,22.1,15.7,35.2,20
	c5.3,1.8,7.8,1,10.5-3.7c5.3-9.3,14-12.3,23.6-12.1c5.8,0.1,12.3,1.7,17.1,4.7c9.7,6,20.4,10.5,28.3,19.4c3.8,4.2,8.7,7.6,13.7,10.3
	c4.2,2.2,9,3.4,14.2,3c12.8-1.1,24.7,2.1,35.4,9.6c5.6,3.9,11.2,7.4,15.4,13.1c7.5,10.3,4.8,27.9-5.8,35c-5.5,3.8-11.4,4.1-16.9,0.4
	c-4.3-2.9-8.5-6.2-11.9-10c-3.8-4.3-8.3-5-13.4-4.2c-5,0.8-6.6,5-7.9,8.9c-3.5,10.4,1.2,16.8,12.2,17.3c6,0.3,12,1,18,1
	c10.8,0.1,19.9,4.5,27.6,11.4c9.5,8.5,15.8,18.6,12.5,32.4c-2.6,11.2-5.2,22.4-12.7,31.6c-3.2,4-3.1,8.5-0.6,12.5
	c3.6,5.8,4.7,12.1,5.1,18.6c0.3,5,2.4,9,6.4,12c4.2,3.1,7.3,3,11-0.7c1.1-1.1,1.9-2.5,2.8-3.8c6.4-8.7,14.2-11.6,24.6-9.1
	c12.7,3.1,20.5,10.9,22.9,23.9c2.1,11.7,1.8,23.3-0.9,35c-2.3,10.2-9.2,15.9-18.5,18.2c-7,1.7-14.3,1.7-21.2-2.6
	c-7.8-4.9-9.9-4.5-16.3,2c-3.4,3.5-6.1,7.8-9,11.8c-7.4,10.4-14.6,12.6-26.4,8c-13.7-5.4-20.5-17.3-17.8-31.9
	c1.2-6.1,3.3-12,4.9-18.1c2.9-10.5-0.2-19.7-7.3-27.4c-4.7-5.1-13.9-3-18,3.8c-4.8,8.2-5.5,16.8-1.6,25.5c3.5,7.9,7,15.8,11,23.4
	c4.8,9.2,4.7,18.6,1.5,28.1c-2.1,6.3-12.9,14.1-19.6,13.8c-12-0.7-17.8-3.9-21.4-12.8c-3.1-7.7-5.9-15.6-9-23.4
	c-0.7-1.7-1.6-3.4-2.7-4.7c-3.9-4.5-10.3-4-12.9,1.4c-1.4,3-2.7,6.6-2.4,9.7c0.8,9.3,2.2,18.6,3.9,27.8c0.5,2.9,2.6,5.6,4.4,8.1
	c2.3,3.2,5.4,4.6,9.5,4.2c2.8-0.3,5.7,0,8.6,0.2c15.9,1.4,22.8,17.2,18.8,28.4c-2.6,7.3-2,14.3-0.3,21.5c1.9,7.7,6.4,11.6,12.9,11
	c7.5-0.7,12.2-5.8,12.4-13.5c0.5-20.2,7.5-38.3,17.7-55.2c8.2-13.5,27.8-13.6,38-0.6c10.2,12.9,14.2,27.8,13.5,44
	c-0.2,4.5-2.1,9.1-3.8,13.4c-1.2,3.1-3.2,6-5.1,8.8c-4,5.8-4.5,10.9,0.3,17c5.1,6.3,5.9,14.6,5.1,22.4
	c-1.7,18.3-20.9,23.3-32.9,20.4c-5-1.2-10.1-3.3-14.2-6.3c-11.6-8.6-17.8-5-23,9.1c-2.1,5.6-3.9,11.2-6.9,16.4
	c-6.5,11.1-19.1,17.8-33.1,8c-7.4-5.2-10.5-11.1-9.6-19.7c0.5-4.9,0.8-9.9,1.9-14.7c1.7-7,0.5-13.5-1.8-20c-3-8.4-7-10.3-15.7-8.2
	c-6.7,1.6-13.6,2.1-20-0.7c-10-4.4-12.3-13.6-12.7-23.4c-0.3-6.8-0.2-13.6,0.3-20.4c1.2-16.2,0.3-32.4-2.1-48.4
	c-2.5-16.3-6.9-31.9-16.5-45.9c-6.3-9.2-11.3-19.4-16.1-29.5c-3.5-7.2-2.1-14.3,3.6-20.2c0.7-0.7,1.5-1.5,2.2-2.2
	c10.6-11.1,24.6-10.4,34.5,1.3c3,3.5,6.5,6.7,10.3,9.3c3.9,2.7,8.4,1.9,11.4-1.1c3-2.9,3.8-6.5,1.4-10.8
	c-3.5-6.4-7.3-12.7-14.6-15.8c-7.5-3.1-14.9-6.3-22.3-9.4c-20.8-8.7-37.6-22.1-45.1-43.9c-3.8-10.9-3.3-22.9,3-33.3
	c6.9-11.4,15.8-21.4,25.5-30.6c10.6-10,28.4-8,37.6-0.8c8.3,6.4,10.5,19.4,2.8,28.3c-3.7,4.3-8.3,7.7-12.5,11.6
	c-3.7,3.4-7.3,6.6-6.6,12.5c1.5,12,9.7,17.1,21.2,12.9c2.7-1,5.2-2.7,8-2.9c7.6-0.8,14.1,1.9,18.2,8.5c4.1,6.6,7.8,13.5,11.2,20.6
	c3.2,6.6,9.3,10,16.4,7.9c8.4-2.5,15.8-6.9,21.2-13.9c3.4-4.3,4.2-9.6,3.9-14.8c-0.5-6.8-4.8-10.1-11.7-9.9c-1.3,0-2.6,0.3-3.9,0.5
	c-15,1.6-32.1-8-38.5-21.8c-0.8-1.6-1.1-3.5-1.1-5.3c-0.3-9.4-0.4-18.7,2.8-27.9c3-8.5,2.3-17.2-2.8-24.8
	c-7-10.6-14.6-12.8-26.4-8.3c-11.4,4.2-21.3,3.3-31.3-2.8c-16.7-10.1-33.4-20.3-50.2-30.2c-8-4.7-20.7-7.1-28.7-0.5
	c-5.4,4.5-7.1,11.7-3.4,17.4c2.1,3.2,11.1,6.2,14.8,4.2c8.1-4.3,14.2-1.2,20.7,3.8c14.3,11,12.8,33.9,6.8,44.4
	c-6.3,10.9-21.6,17.8-34.2,15.8c-11-1.8-19.5,6.3-19.5,17.6c0,6.2,2,10.6,7.5,13.4c12.2,6.4,24.5,12.6,36.6,19.2
	c5.7,3.1,11.5,6.2,16.7,10.1c6.8,5.1,10.1,18.5,7.3,26.6c-2,5.8-7.9,9.6-15.5,9.8c-12.3,0.3-22.8-4.5-33.1-10.6
	c-11.4-6.8-22.6-13.9-34.5-19.7c-6.4-3.1-13.9-4.7-21-5.2c-18.5-1.3-37-1.8-55.5-2.3c-7.8-0.2-15.6,0.7-23.4,0.5
	c-8.3-0.2-16.8-0.3-24.8-2.2c-5.6-1.3-10.5-5.5-15.6-8.5c-1-0.6-1.6-2.1-1.9-3.3c-2.8-9.1,0.5-19.4,8-25.4c0.8-0.7,1.6-1.4,2.5-1.8
	c8.8-3.6,13.3-11,15.7-19.4c2.1-7.3,6-13.3,10.7-18.9c4.3-5.2,8.7-10.4,13.7-14.8c5-4.4,11.3-4.9,17.8-3.3
	c13.7,3.5,18.1,16.1,9.5,27.3c-4.5,5.8-9.1,11.5-13.8,17c-2.1,2.5-2.5,5-1.8,8c0.7,3.1,2.5,5.1,5.6,5.8c2.7,0.6,5.3,0,6.9-2.4
	c1.6-2.4,3-4.8,4.3-7.4c5.9-11.6,14.7-18,28.2-16.9c3.1,0.3,6.3,0.3,9.4,0.6c8.2,0.8,12.8-2,14.2-10.1c0.9-5.3,0.8-10.9,0-16.2
	c-1.1-7.1-6.7-10-13.8-9.2c-6.1,0.7-12.5,1.4-18.6,0.8c-7.1-0.7-12.6-4.7-15-12c-1.7-5.2-3.5-10.3-5.4-15.4
	c-0.6-1.7-1.2-3.5-2.3-4.9c-2.4-3-5.3-3.1-7.9-0.2c-1.9,2.1-3.4,4.5-4.7,7c-1.3,2.5-2.1,5.3-3,8.1c-5.7,19.1-27.8,17.8-37.5,8.8
	c-6.9-6.4-10.9-14.5-11.4-24.2c-0.4-8.6-0.5-17,2.6-25.4c4.1-11,10.4-16.3,22-16.1c2.9,0,5.7,0.6,8.6,0.6c4.6,0,5.6-1,6-5.3
	c0.6-6.1-1.7-11.5-5.1-16c-1.7-2.3-5.6-3.5-8.7-4.2c-3.2-0.7-6.8-0.2-10.2-0.1c-5,0-9.9,0.1-14.9,0.1c-8.2,0-15.4-2.1-20.2-9.5
	c-1.4-2.2-3.6-3.9-5-6c-5.3-7.9-12.2-12.7-22.1-12.4c-2.3,0.1-4.6-0.8-6.8-1.5c-13.6-3.9-27.3-6.8-41.3-8.2
	c-10.3-1-18.6,3.2-27.4,8.5c3.6,3.6,7.7,4.5,11.7,4.9c4.7,0.5,9.4,0.4,14.1,0.4c8.6,0.1,17.2-0.4,25.7,0.3
	c16.1,1.3,24.4,16.2,17.6,30.9c-0.8,1.7-1.8,3.2-2.7,4.8c-3.7,6.7-2.5,9.2,5.4,10.2c4.8,0.7,9.7,1.4,14.5,2.1
	c12.2,1.8,22,18.6,16.6,32.8c-7.7,20.3-25.1,23.6-40.5,17.5c-1.2-0.5-2.4-0.9-3.7-1.3c-10-3.1-13.9-3.1-18.6,8.9
	c-2.2,5.7-3.3,12.1-3.6,18.3c-0.5,9.6,4.9,14.6,14.5,14.1c11.6-0.6,21.5-6,31.1-11.8c8-4.8,16-8.2,25.7-7.3
	c13.4,1.3,23.5,12,23.7,25.3c0.2,13.2-5.2,23-15.9,30.5c-5.1,3.6-10.6,3.9-16.4,3.8c-5.5-0.1-10.9,0.2-16.4,0.6
	c-2.3,0.2-4.7,0.8-6.8,1.7c-3.7,1.5-4.4,3.5-2.9,7.4c6.3,16.9-2.6,30.7-20.9,32.8c-26.3,2.9-52.6,2.4-79,0.7
	c-8.1-0.5-12.1,1.8-13.6,9.4c-2.9,14.8-5.6,29.7-7.7,44.7c-0.8,6.1,0.4,12.5,0.6,18.7c0.4,10,0.2,19.8-4.8,29
	c-2.9,5.4-7,9-12.3,11.5c-2.6,1.2-5.3,2.3-8,3.2c-1.4,0.5-3.5,1.1-4.4,0.5c-5.3-3.5-12.1-5.3-15.3-11.5c-2.8-5.4-3.5-11.3-2.5-17.3
	c0.8-5.1,1.9-10.1,2.7-14.9c-4.5-3.4-8.1-1.4-11.9-0.4c-18.1,4.8-34.3,1.8-47.1-12.6c-3.3-3.7-5.8-8.8-7.1-13.6
	c-3.1-12.4,4.9-22.8,17.6-22.7c6.1,0,12.8,1.1,18.1,3.9c10.2,5.4,20,5,30.1,1.1c8.6-3.4,11.9-11.2,15.1-19
	c4.3-10.6,4.6-21.2,2.3-32.8c-3.5-18,2.4-30.5,25.8-29.9c10.1,0.3,18.1,4.6,25.5,10.5c12.5,10.1,26.7,9,41.1,7.1
	c3.1-0.4,5.2-2.6,4.7-6.1c-0.4-3.1-0.9-6.2-2-9.1c-1.4-3.5-4-4.6-8.2-4.2c-8.7,1-17.5,2.7-26.2-0.7c-8.6-3.5-14.1-13.8-10.7-22.3
	c2.7-6.4,6.1-12.6,9.9-18.5c2.4-3.8,3.1-7.7,2.7-11.9c-0.3-3.7-2.1-6.3-6.1-7.2c-6.9-1.5-13.7-3.4-20.6-4.7
	c-23.4-4.4-30-28.3-23-45.7c2.3-5.8,7.7-9.2,14.1-10.1c7-0.9,13.7,0.2,19,5.3c4.5,4.3,9.1,8.7,12.7,13.8
	c5.6,7.8,13.3,10.8,22.2,10.9c6.5,0.1,13.9-7.4,14.5-13.9c0.2-1.8,0.4-3.6,0.5-5.5c0.2-11.9-3.3-17.2-14.8-20.7
	c-6.2-1.9-12.6-2.9-19-4.3c-6.1-1.3-12.3-2.4-18.3-4.1c-14-3.8-21.1-15.5-20.5-27.8c0.5-12.5-2.3-15-15.2-14.7
	c-19.3,0.5-38.6,1.6-57.9,1.7c-18.2,0.1-36.5-0.9-54.7-1.3c-1.5,0-3.3-0.3-4.6,0.4c-1.4,0.7-3.4,2.6-3.2,3.6
	c0.3,1.6,1.8,3.9,3.3,4.4c7.2,2.2,14.7,3.7,21.9,5.9c15.5,4.7,20.8,24.1,10.2,36.2c-5.4,6.2-16.9,8.5-23.4,3.7
	c-7.9-5.9-15.8-7.2-24.8-3.8c-0.5,0.2-1,0.3-1.5,0.3c-8.3-0.5-16.5,1.2-24.7,1.9c-3.2,0.3-7.3-1.5-9.9-3.7
	c-9.5-8.2-11.4-21.7-5.5-32.9c1.3-2.5,3-5,4.1-7.6c2.6-6.3,0.4-10.3-6.4-11c-3.9-0.4-8.2-1.1-11.6,0.3c-11,4.3-22.2,2.5-33.3,2.2
	c-11.2-0.3-22.4-0.8-33.6-1.2c-10.8-0.4-11.1,1.1-15.4,12.7c-1.2,3.3-1.2,7.2-1.2,10.8c0,15.2,0.1,30.3,0.3,45.5
	c0,2.1,0.1,4.3,0.9,6.1c0.6,1.4,2.4,3.1,3.8,3.2c1.3,0.1,3.2-1.5,4-2.8c1.1-1.7,1.6-3.9,2-5.9c1.3-6.7,1.8-13.5,3.7-20
	c3.8-13.1,9.2-25.1,24.1-29.4c14.6-4.2,26.7,2.9,29.8,14.9c2.6,10.1,10.7,15.5,19.5,20.2c5,2.6,9.7,6.2,13.5,10.4
	c6,6.5,7.6,14.7,6.7,23.4c-0.3,2.6-0.8,5.2-1.3,7.7c-1.7,9.6-6.5,16.1-16.4,18.7c-10.6,2.8-18.9-0.8-26.3-7.9c-3-2.9-5.6-6.3-8.7-9
	c-6.4-5.7-14.3-3.9-17.8,3.8c-1.2,2.6-2.3,5.3-2.9,8.1c-1.6,7.3,1.7,13.6,8.3,17.7c5.7,3.6,11.3,7.3,16.5,11.6
	c6.8,5.7,8.2,13.8,7.9,22.1c-0.2,4.4-0.6,9-2,13.1c-5.5,16.9-6.9,34.2-5.8,51.8c0.6,10.4,1.6,20.8,2.2,31.3c0.4,7.1-0.3,14-3.3,20.6
	c-3.8,8.3-9.5,14.2-18.6,14.7c-10,0.6-19.4-2-25.2-11.2c-6.5-10.1-8.3-21.4-6.8-33.1c2-16,4.7-31.9,7.2-47.8
	c1.2-7.8-0.4-15-4.1-21.8c-0.7-1.4-1.6-3-2.8-3.7c-2.1-1.2-4.8-2.6-7-2.3c-3.3,0.5-4.9,4.4-3.9,6.7c2.7,6.2,0.4,12.1-0.9,17.5
	c-4.1,17.1-2,34.2-1.9,51.3c0,12,0.2,24,0.5,36c0.2,7,1.1,13.9,1.2,20.9c0.3,19,0,38.1,0.6,57.1c0.2,5.3,1.9,10.7,3.8,15.8
	c1.5,4.1,6.8,4.5,10.6,1.2c1.6-1.3,2.9-3.1,3.9-4.9c3.3-5.9,6.1-12.1,9.5-17.9c2.8-4.9,6.1-9.6,9.4-14.3c0.8-1.1,2.6-1.7,4.1-2.1
	c11.4-2.4,22.4-3.1,33.3,3.4c5.6,3.4,11.4,6.2,16.1,10.8c0.7,0.7,1.7,1.2,2.4,2c5.8,6.7,4.3,28-2.8,33.3c-6.7,5-13.8,9.4-20.8,13.8
	c-7.1,4.5-15.3,4.8-23.3,5.5c-2.8,0.2-5.5,0.9-8.3,1.4c-1.7,6.6,0.3,11.3,4.5,15.4c2.2,2.2,4.7,4.1,6.7,6.5
	c12.5,14.8,11.8,31,4.6,47.7c-5.5,12.7-6,25.3,0.7,37.7c1.1,2,2.4,4.1,4.2,5.5c3.1,2.6,6.5,2,8.5-1.5c1.6-2.9,2.8-6.1,3.6-9.4
	c1.2-4.8,1.9-9.7,2.9-14.6c1.2-5.8,4.9-9.7,10.2-12.1c11.9-5.5,26.6-0.3,31.8,11.8c4.7,11,5.6,22.1-0.4,33.2
	c-7,13-13.8,26.2-20.7,39.3c-3.6,6.8-3.7,13.7,0.3,20.1c2.8,4.6,6.7,8.5,10.1,12.7c1,1.2,2.2,2.3,3.1,3.5
	c6.3,8.5,15.5,12.6,24.7,16.9c6.6,3,13.3,6.1,19.1,10.4c7.1,5.2,9.8,16.1,6.5,24.1c-2.7,6.3-8.5,9.4-14.9,10
	c-11.3,1-22.5,0.3-32.7-5.7c-0.9-0.5-1.9-0.9-2.8-1.4c-4-2.2-8.2-4.5-12.4-1c-4.7,4-9.9,7.9-9.7,15.2c0.3,9.8,6.6,15,16,12.5
	c7.2-1.9,14.3-2.8,21.7-2.5c13.4,0.5,20.1,7.3,20.3,20.7c0.1,6.3-0.2,12.5,0,18.8c0.2,8.1,2.4,10,10.5,10.1
	c11.4,0.1,18.5-5.7,20.4-17.1c1.5-9.3,3.3-18.5,7.5-27.1c6.7-13.8,11.3-16.5,26.5-14.9c4.1,0.4,8.2,1.6,12.2,2.6
	c8.9,2.4,12.5-0.2,11.8-9.4c-0.3-4.1-1.7-8.2-2.9-12.1c-2.6-8.7-6.1-17.3-8.1-26.1c-2.9-12.8-2.7-26,0.1-38.8
	c3.1-14.3,16.3-21.4,29.2-16.4c6.6,2.6,11.8,7.3,13.7,14.1c2.1,7.2,4.2,14.7,4.4,22.2c0.5,16.2,1.5,32.4,5,48.2
	c1.4,6.5,4.3,12.9,7.7,18.6c4.7,7.9,13.1,6.9,16.7-1.7c2.2-5.3,3.9-10.8,5.5-16.3c3.2-11.3,10.4-18.1,21.7-21
	c5.2-1.4,10.3-3.5,15.1-5.1c0.4-12.5-5.2-19-16.6-19.6c-2.8-0.2-5.7,0.2-8.6,0.5c-3.4,0.3-6.7,1-10.1,1c-15.8,0-25.7-9.6-25.9-25.5
	c-0.1-10.2,0.1-20.4,0.5-30.5c0.6-13.7-2.3-26.5-8.9-38.4c-3.4-6.2-7.9-8.4-13.3-7.3c-4.8,1-6.8,2.7-7.5,7.7
	c-0.4,2.8,0.3,5.7,0.3,8.5c0,4.9,0.5,10-0.5,14.7c-1.9,9.3-7.6,13.9-16.9,14.5c-9.4,0.6-18.7,0.8-28.1,1.4c-2.9,0.2-5.8,1.3-8.8,2.1
	c0.5,6.2,2.5,10.8,6.2,14.2c10.4,9.4,14.3,21.1,12.7,34.5c-1.4,11-9.3,17.4-18.9,21.1c-15.4,5.9-29.6,1-41.9-8.3
	c-10.9-8.2-18.7-19.5-24.4-32.1c-4.2-9.5-3.9-18.3,3-26.3c3-3.5,6.2-7,9.8-10c3-2.6,4.2-5.2,2.6-8.8c-2.1-5-4.2-10-6.4-15
	c-3.2-7.2-2.5-14.5,0.7-21.2c2.3-4.8,6.7-8.1,12.3-8.6c7.9-0.7,15.6,0,22.8,3.9c3.4,1.8,7.3,2.7,10.7,4.5c4.2,2.2,8.1-0.3,12.2-0.1
	c1,0,2.6-1.8,3-3.1c1.3-4.2,2.8-8.4,3.2-12.8c0.6-7,0.2-14.1,0.5-21.2c0.4-10.4,4.9-18.7,13.8-24.1c10.8-6.5,19.4-4.1,26.4,4.4
	c3.9,4.8,7.3,10.4,9.5,16.1c2,5.3,6.2,6.8,10.2,8.8c3,1.5,7.5-1.2,8.3-5.2c1-5,1.6-10.3,1.4-15.5c-0.4-12.5-1.3-25-2-37.5
	c0-0.5,0-1-0.1-1.6c-0.8-5.4-3-6.4-7.1-3.1c-2.1,1.6-4,3.4-5.9,5.1c-7.4,6.5-15.8,7.9-24.8,4.5c-4.5-1.7-9.5-2.6-12.5-7.4
	c-4.6-7.4-3.5-20.7,2.8-27.7c3.6-4.1,7.5-8,11-12.3c3.5-4.2,3.6-7.1,1.1-9.8c-2.9-3.1-7.9-4-11.4-1.1c-3.1,2.6-5.8,6-7.7,9.6
	c-6.4,12.1-14.5,15.3-27.1,10c-3.8-1.6-7.1-4.2-10.8-6.3c-4.1-2.3-8.1-4.8-12.4-6.5c-4-1.6-8.3,0.6-9.2,4.8
	c-1.8,8.2-2.9,16.5,1.2,24.5c2.2,4.3,4.5,5.5,7.9,2.6c9-7.9,18.2-4.3,27.1-0.7c9.5,3.9,12,12.9,13,21.7c0.8,6.6,0.4,13.7-1.3,20.2
	c-2.1,8.3-9.3,12.8-16.1,17.4c-7.8,5.2-15.6,5.1-23.8,1.5c-2.1-0.9-4-2.5-5.7-4c-4.8-4.2-9.8-4.3-15.2-1.4c-0.7,0.4-1.4,0.6-2.1,1
	c-11.6,7.4-23,5.1-33.8-1.6c-3.3-2.1-6.7-5.9-7.6-9.5c-2.8-11.5-4-23.3,3.5-33.9c3.5-4.9,6.9-9.8,10.7-14.5c3.2-4,4.7-7.6,2.1-12.8
	c-2.8-5.8-5-12.1-6.6-18.4c-3.8-14.6-1.7-28.1,9-39.3c2.3-2.4,6.1-4.1,9.5-4.8c5.8-1.2,11.6-1.4,17.3,1.7c5,2.7,10.5,4.6,15.8,6.9
	c6.2,2.7,12.6,3.5,19.2,2.5c3.4-0.5,7-1.4,8-5.2c1-3.8,0.1-7.1-3.3-9.7c-6.6-5-11.9-11.4-19.7-15.1c-7.4-3.5-12.5-9.9-14.9-18.2
	c-1.8-6.2-3.8-12.5-6.7-18.3c-3.5-7-8.4-8.2-15.7-5.9c-3.4,1.1-4.7,3.1-4.6,6.3c0.1,2.9,0.4,5.7,0.8,8.5c1.6,11.3,1.1,22.1-4.6,32.7
	c-5.3,9.9-25.1,17.5-35.7,13.2c-14.4-5.8-17.5-20.8-14.1-31.8c2-6.4,4.6-12.7,7.8-18.6c6.6-12.3,6.8-24.7,3.6-38
	c-3.5-14.7-0.6-29.2,4.4-43c2.8-7.7,11.3-12.6,17.6-11.9c11.2,1.3,17.2,6.2,19.7,16c1.1,4,2.6,8,3.5,12c3.5,17,27.2,17.6,36,10
	c3.5-3,4.7-9.1,6-14c1.2-4.8,1.3-9.8,1.6-14.8c0.4-4.9,1.9-9.1,5.5-12.5c2.1-2,3.9-4.2,5.6-6.6c5.9-8.3,14.5-8.7,23.2-7.2
	c5.7,1,10.2,7.9,10.8,14.9c0.8,9.4-1.7,18-5.5,26.5c-1.4,3.2-3,6.9-2.8,10.3c0.7,13.2,13.4,21.2,25.9,17c1.7-0.6,3.4-1.4,5.8-2.4
	c0-4-0.2-8.1,0-12.3c0.4-9.1,0-18.4,1.8-27.3c2.4-12.1,7.5-22.8,20.5-27.5c4.1-1.5,7.9-4.1,11.6-6.4c7.5-4.7,9.5-10.1,7.1-18.7
	c-1.4-5-3.3-6.6-8.5-5.9c-7.8,1-15.2,3.3-22.1,7.2c-5.2,3-10.6,5.4-16.9,5.4c-12.2,0-21-6.4-22.5-18.4c-1.7-13.5,1.1-26.3,12.5-35.3
	c5-4,11.3-6.4,16.8-9.8c1.8-1.1,4-2.9,4.5-4.8c3.1-11.8,1.6-13.4-10-13.7c-14.1-0.4-23.3,7-30.9,17.9c-6,8.6-14.6,12.8-25.1,13.9
	c-10.8,1.1-16.7-5.8-23.2-12.2c-1.7-1.6-3-3.7-4.9-4.9c-4-2.5-7.7-1.1-9.3,3.3c-3.6,9.5,0.8,23.4,9.7,28c5.7,3,12.2,2.7,18.4,1
	c9-2.4,16.5,0,23,6.2c1.6,1.6,3.2,3.8,3.5,5.9c1.8,13.4-0.6,25.1-12,34.3c-8,6.5-17.3,10.2-26.7,12.6c-9.9,2.6-19.7-0.7-28-6.9
	c-10-7.5-14.9-17.9-17-29.8c-0.8-4.3,1.3-7.5,5-8.6c3.5-1,6.9,0.9,8.4,5.1c1.4,3.9,2.5,8,4,11.8c4.5,11.1,17.8,18.2,30.4,12.5
	c5.7-2.6,11.5-4.9,16.3-9c4-3.4,6-7.8,6-13c0-5.9-3.4-8.9-9.1-7.3c-6.8,1.9-13.4,1.6-20.2,0.7c-2.6-0.3-5.5-0.6-7.5-2
	c-8.8-6-17-13.1-18.9-23.9c-1.6-8.9-1.6-18.1,3.3-26.6c7.1-12.3,24-14.6,33.8-4.3c1.4,1.5,2.6,3.2,3.8,5c6.6,9.8,15.9,10.4,23.8,1.4
	c3.3-3.7,6.7-7.4,9.3-11.6c8-12.6,35.9-17.1,47.3-12.1c7.9,3.5,12.2,8.9,12.6,17.1c0.2,5.2,0,10.6-1.5,15.5c-0.9,3.1-4.1,5.9-7,7.9
	c-6,4.2-12.4,7.7-18.6,11.6c-6.5,4.2-10.1,13.8-8.2,21.2c1.4,5.4,7,8.2,12.3,6.1c5.1-2,9.9-4.8,15-6.4c6.9-2.2,14-4.3,21.2-5
	c11.3-1.1,19.7,6.3,21.3,18.1c0.7,5.1,0.5,10.4,0.2,15.6c-0.7,10-9,14-16,18.8c-3,2-6.4,3.7-9.9,4.7c-8.1,2.4-11.6,8.8-13.4,16
	c-1.2,4.7-1.7,10-0.8,14.7c1.9,9.6-0.2,18.7-1.9,27.8c-0.5,3-3,6.2-5.6,8.1c-11.9,8.6-30.8,8.4-41.9-0.6c-10.2-8.3-16.3-25-9.8-37.2
	c2.2-4.1,3.7-8.6,5.2-13.1c0.8-2.4,1.1-5.1,1.3-7.7c0.2-2.3,0.1-5.4-2.9-5.5c-1.9-0.1-4.6,1.2-5.8,2.7c-4.6,6-8,12.3-8.9,20.4
	c-0.8,7.9-3.3,15.9-6.2,23.3c-2.6,6.4-9.2,9-15.4,11.1c-10.5,3.6-21.2,3.1-31.5-0.8c-8.3-3.2-13.3-10-16.3-18.1
	c-1.8-4.9-3.1-9.9-4.5-15c-0.8-3.1-2.3-5.1-5.8-5.3c-3.6-0.2-5.3,1.7-6,4.9c-2.7,11.4-5.2,22.7-2.1,34.7c4.5,17.5,1,34.2-7.4,49.9
	c-1.8,3.4-3.5,7-4.9,10.6c-1.7,4.6-0.8,8.9,2.6,12.3c3.2,3.1,7.1,2.3,11,1.1c8.5-2.6,13.2-8.2,13.6-16.9c0.2-4.4-0.4-8.8-0.6-13.3
	c-0.2-4.2-0.7-8.3-0.6-12.5c0.2-7.9,4.3-13.2,11.6-16.1c1-0.4,1.9-0.9,2.9-1.1c15.1-3.5,22.9-4.1,32.9,13.9c3.1,5.6,5.1,12,7,18.2
	c2,6.4,5.2,11.1,11.7,13.5c2.9,1,5.5,3,7.8,5c4.6,3.9,8.9,8.1,13.2,12.2c10.5,10.1,8.1,27.8-4.9,34.3c-12.1,6-24.3,4.2-36.4-0.5
	c-5.1-2-10-4.4-15.2-6.1c-9.9-3.3-15.8,0.1-17.2,10.3c-0.7,4.5-0.3,9.5,0.7,14c1.6,6.8,3.5,13.7,6.6,20c4,8.3,1.7,15.2-3,21.9
	c-3.3,4.7-6.9,9.2-10.4,13.7c-3.5,4.6-4.6,9.8-4.6,15.5c0,9.3,12.3,17.8,20,12.8c13.6-9,25.8-8.1,38,1.8c3,2.5,6.1,2,9.5,0.3
	c9.6-4.8,14.4-14.4,12-24.6c-2.2-9.4-10.5-13.5-19-9.4c-1.6,0.8-3.3,1.6-5.1,2.1c-9.3,2.8-16.5,0.1-21.2-8.4
	c-7.1-12.7-7.2-26.2-2.8-39.5c3.9-11.8,17.4-17.1,29-11.9c4.7,2.1,8.9,5.4,13.4,8c4,2.3,8.1,4.5,13.1,7.3c2.1-3.3,4-6,5.6-8.8
	c3.9-6.7,8.8-12.2,16.5-14.8c14.2-4.8,28.7,4.7,29.8,19.5c0.4,5.7-2.6,10-5.6,14.2c-3.2,4.4-6.9,8.5-10.4,12.7
	c-3.7,4.5-4.1,7.2-1.7,10.3c2.4,3,7.5,4.5,11.4,2.5c3.2-1.6,5.9-4.2,8.9-6.3c2.5-1.8,5-3.8,7.8-5.1c13.4-6.1,21,2.7,22.9,12.9
	c1.1,5.9,1.5,11.9,1.7,17.9c0.4,11.5,0.5,23,0.6,34.5c0,3.4-0.7,6.7-1,10.1c-1,12.6-20.3,22.8-31.6,13.9c-1.4-1.1-3-2.2-4.7-2.8
	c-5.6-2.2-8.4-6-9.9-12c-1.1-4.4-4.2-8.3-6.8-12.2c-2.1-3.1-5.2-3.2-8.3-1.4c-4.7,2.7-7,6.9-7.2,12.3c-0.2,7.3,0.3,14.7-0.5,21.9
	c-0.7,6.1-2.6,12.1-4.5,18c-3,9.7-11.5,11.7-19.9,12.3c-7.8,0.6-15.5-0.4-22.3-5.7c-4.8-3.8-10.5-5.8-17.1-3.3
	c-2.4,5.7-1,10.8,1.4,16.3c2.4,5.6,3.8,11.8,4.8,17.9c0.9,5.5-1.6,10-6.2,13.5c-3.3,2.5-6.2,5.6-9.2,8.4c-3.7,3.4-3.7,7.8-1.5,11.4
	c5.2,8.9,8.7,18.9,16.9,26.1c6.4,5.6,13.5,9,21.7,9.8c3.5,0.3,7.4-0.5,10.6-2c8.2-3.6,11.2-12.8,7.1-21.1c-1.6-3.2-4-6.1-6-9.1
	c-3.3-5-7.2-9.7-9.6-15.1c-6-13.6,0.6-24.8,15.4-26.5c7.8-0.9,15.6-0.7,23.5-1c0.8,0,1.6,0.2,2.3,0.2c10.1,0.2,12.8-2.7,11.5-12.6
	c-0.9-6.5-2-12.8,0.1-19.3c1.7-5.4,4.6-9.5,9.7-11.5c4.8-1.8,9.9-3.7,15-3.9c3.5-0.2,7.6,1.7,10.7,3.8c12,8.3,16.2,21.2,19.7,34.5
	c2.9,11.1,1.7,22.3,1.6,33.5c-0.1,5.7-0.2,11.5-0.1,17.2c0.2,10.2,5.4,14.6,15.6,13.5c5.7-0.6,11.4-1.3,17.1-1.3
	c16.6,0.1,30.5,15.8,28.8,32.2c-0.9,8.6-6.3,15-14.6,17.3c-3.8,1.1-7.5,2.3-11.3,3.3c-6.4,1.8-10.1,6.1-12.2,12.2
	c-1.8,5.4-3.5,10.9-5.5,16.3c-4.2,11.3-13.8,17.1-25.7,16.2c-7.7-0.6-12.5-5.7-16-11.3c-3.9-6.1-7.6-12.9-8.9-19.8
	c-2.9-14.8-5-29.9-5.9-45c-0.4-7.3-0.8-14.5-2.1-21.6c-0.8-4.8-3.8-7.9-7.5-10.5c-3.4-2.4-5.7-2.3-7.9,1.3c-1.7,2.8-3.1,6.3-3,9.4
	c0.1,10.1,0.7,20.3,1.4,30.4c0.2,2.8,1.6,5.5,2.5,8.2c3.9,10.8,7.9,21.5,8.9,33.2c0.8,9.8-2.9,16.6-11.7,20.9
	c-6.3,3.1-12.2,0.4-18.2-0.9c-4.3-0.9-8.6-2-12.9-2.9c-4.2-0.8-7.2,1.1-8.7,5c-2.3,6.3-4.5,12.7-6.5,19.2c-0.9,3-1.1,6.2-1.7,9.2
	c-2.8,14.4-13.6,24.3-28.3,25.7c-2.3,0.2-4.7,0.1-7,0.2c-13,0.4-23.1-8.6-22.8-22.3c0.1-6,0-12,0.1-18c0.1-7.7-1.2-9.3-9-9.1
	c-5.2,0.1-10.5,0.6-15.5,1.9c-19.8,5.5-30.8-6.1-33.5-23.4c-2.5-15.6,11.2-30.5,22.2-32.8c4.4-0.9,9.3-0.4,13.8,0.5
	c3.5,0.7,6.8,2.7,9.9,4.5c7.1,4.3,15,4.2,22.8,4c4.5-0.2,6-3.9,2.6-6.9c-4.6-4.1-10-7.4-15.4-10.4c-5.5-3-11.5-4.9-17-7.8
	c-2.9-1.5-5.6-3.9-7.9-6.3c-7.2-7.8-15-15.2-20.2-24.7c-5.3-9.7-7.2-19.6-2.6-30c3.2-7.1,6.8-14.1,10.4-21c4.2-8.1,8.8-16,12.8-24.2
	c3.7-7.5,2.2-16.4-3-21c-6.2-5.4-11.7-3.9-13.8,4.1c-0.9,3.3-1.5,6.6-1.7,10c-0.3,6-3.2,11-6.1,15.9c-5.9,10-26.3,10.7-32.6,0.3
	c-8.6-14.3-14.2-29.1-8.3-46.1c2.1-6.2,3.7-12.5,5.6-18.8c3.6-11.9,0-21.5-9.2-29.3c-9.4-8-12.8-18.1-10.8-30.2
	c1.5-8.9,4-12.2,15-14c3.6-0.6,7.3-0.6,11-0.3c12.7,1.1,21.8-5.1,29.8-13.9c2.5-2.7,3.8-5.7,3.1-9.3c-0.4-2.1-1.3-4.5-2.8-6
	c-6.1-6.3-14.6-7.8-22.3-10.6c-3.9-1.4-10.9,2.7-13,6.5c-4.1,7.2-8.1,14.5-12.4,21.6c-2,3.3-4.7,6.3-7.4,9.1
	c-6.6,6.6-14.8,7.4-23.2,5.3c-2.9-0.8-6.2-3.4-7.7-6.1c-4.6-8.5-7.9-17.5-7.5-27.6c1-23.5,1.1-47-1.6-70.4
	c-1.1-10-0.1-20.3-0.2-30.5c-0.1-11-0.6-21.9-0.6-32.9c-0.1-8.6-0.3-17.2,0.4-25.7c0.8-9.8,1.8-19.8,4.1-29.4
	c2.6-11,8.9-14.9,20-14.9c6.9,0.1,11.8,4.1,15.8,8.9c8,9.8,10.7,21.4,9.2,33.8c-1.8,14.5-4.4,28.9-6.6,43.3
	c-1.1,7.3-1.8,14.6,0.5,21.7c1,2.9,2.1,6,4,8.4c5,6.7,15.3,5.6,18.4-2.1c1.6-4,2.5-8.6,2.3-12.9c-0.7-16.2-1.9-32.3-2.8-48.5
	c-0.2-3.3,0-6.7,0.6-10c2.1-10.7,4.3-21.5,6.8-32.1c2.8-12.2,0.1-19.2-10.6-25.8c-1.8-1.1-3.7-1.9-5.6-2.9
	c-14.3-7.4-20.3-25.4-13.3-40.1c0.4-0.9,0.8-1.9,1.2-2.9c8.5-19,28.7-22.4,43.2-7.5c4.1,4.2,7.1,9.6,13.7,11.2
	c6.4,1.6,10.2-0.1,11.6-6.5c0.5-2.5,1.1-5.1,1.4-7.7c0.6-6.1-0.9-11.4-6.3-15c-3.3-2.2-6.5-4.5-9.9-6.2
	c-9.9-5.1-17.3-12.4-21.5-22.8c-0.3-0.7-0.8-1.4-1.1-2.1c-4.3-8-14.8-9.2-20.2-1.7c-3.1,4.3-5.2,9.6-6.6,14.8
	c-2,7.5-2.9,15.4-4.5,23c-1.8,8.4-6.8,13.8-15.5,15.7c-11.3,2.4-21.5-4.5-22-16.1c-0.5-14.3-0.2-28.7-0.2-43.1
	c0-8.4-0.4-16.7,0.2-25c0.7-8.8,4.9-16,13.1-20c3-1.4,6.4-2.7,9.6-2.6c17.2,0.2,34.4,1.1,51.6,1.4c5.4,0.1,11.1-0.1,16.2-1.7
	c7.6-2.3,15.1-2.1,22.5-1.1c13.2,1.8,20.8,16,15.9,28.6c-1.2,3.1-3.4,5.9-4.6,9.1c-1.2,3.1-2.3,6.5-2.2,9.7c0.1,4.7,3.4,7.7,8.2,7.3
	c7-0.6,13.9-1.8,20.8-3c3.8-0.6,7.6-1.7,11.4-2.4c7.3-1.5,13.9,0,19.9,4.7c2,1.6,4.5,4.6,7.5,2.5c3.6-2.6,0.7-5.8-0.6-8.4
	c-0.9-1.8-2.9-3.7-4.8-4.3c-4.7-1.5-9.6-2.3-14.5-3.2c-11.2-1.9-16.6-6.3-18.6-16.2c-1.3-6.4-0.8-13.5,4.5-17.3
	c4.5-3.3,11.1-4.8,16.8-5.1c9.6-0.5,19.2,0.9,28.9,1c13.8,0.1,27.7-0.3,41.5-0.5c16.2-0.2,32.4-0.5,48.5-0.3
	c9,0.1,17.1,3.3,21.5,11.7c1.8,3.5,2,8,2.1,12c0.4,15.1,1.8,17.2,16.5,20.9c3.5,0.9,7.2,1.6,10.8,1.9c8.2,0.5,15.7,3.5,23.5,5.7
	C584,71.3,590,83,591.2,99c0.1,1-0.2,2.1-0.1,3.1c1.4,16.3-8.4,24.9-21.7,30.8c-2.5,1.1-5.6,1.9-8.4,1.6c-13.1-1.2-25-4.8-33-16.6
	c-2.9-4.3-6.8-7.9-10.4-11.6c-2.3-2.3-5.3-3.6-8.6-2.3c-3.5,1.4-3.8,4.8-4,7.9c-0.9,10.2,4.6,17.4,14.8,19.7
	c6.4,1.4,12.7,2.8,19,4.5c19,5.1,25.4,24.5,13.7,40.5c-2.7,3.7-5.3,7.8-7.1,12c-2.4,5.5-0.2,8.6,5.7,8.8c4.7,0.2,9.4-0.1,14.1-0.6
	c12.4-1.5,20.8,3.5,24.7,15.3c1.1,3.2,1.6,6.6,1.9,10c1,12.3-5.7,20.9-17.9,22c-8.8,0.8-17.7,0.6-26.5,0.2
	c-10.6-0.5-19.3-5.9-27.3-12.5c-5.4-4.5-11.6-5.7-18.3-5.1c-6.1,0.5-8,2.4-7.7,8.5c0.4,6.7,1.7,13.4,2.6,20.1
	c1.4,9.4-0.3,18.2-5.5,26.2c-1,1.5-1.7,3.2-2.5,4.9c-8.5,18.7-28.5,28.6-48.4,23.9c-4.5-1.1-8.8-3.1-13.2-4.6
	c-3.2-1-6.5-2.2-9.8-2.5c-4.9-0.5-7.8,3-5.6,7.4c2,4,5.1,8.2,8.8,10.6c8.2,5.2,17.5,6.6,27,3.3c6.1-2.1,12.2-3,18.5-1.6
	c7.3,1.6,10.4,4.9,10.9,12.3c0.3,4.4-0.4,8.8-0.7,13.2c-0.2,3.4-0.7,6.7-0.8,10.1c-0.1,3,0.9,5.8,4.2,6.8c3.5,1,6.8,0.5,9.2-2.5
	c3.6-4.5,4.8-9.8,5-15.4c0.2-4.4,0.4-9-0.3-13.3c-2.2-13.2,0.2-26,3.2-38.7c1.7-7.1,2.5-14.4,3.9-21.6c3.3-16.5,13.2-24.7,28.6-23.1
	c16.8,1.7,33.9,1.4,50.8,1.5c7.2,0,14.4-1.5,21.7-1.8c7.4-0.3,12.3-3.5,14.4-10.4c-0.2-0.8-0.3-1.3-0.5-1.8
	c-6.4-11.8-4.1-19.3,7.7-25.7c9.4-5,19.6-4.9,29.8-4.7c11.5,0.3,19.1-6.6,19.5-18.4c0.2-7.4-3.4-11.5-10.7-12.9
	c-6.3-1.2-11,2.2-16.1,4.7c-7.9,3.9-15.7,8.2-23.8,11.7c-7.8,3.5-16.5,3.9-24.6,2.4c-4.9-0.9-10.3-4.6-13.4-8.7
	c-6.9-9.1-9.1-19.9-5.8-31.2c2.4-8,4.7-15.9,10.1-22.7c6.8-8.5,15.4-10.2,25.2-7.8c4.5,1.1,8.7,3.4,13.1,5.1
	c5.7,2.3,12.6,0.2,16-4.8c3.9-5.7,4-13-0.3-17.4c-1.5-1.5-3.8-2.5-5.9-3c-5.8-1.3-11.8-1.8-17.7-3.2c-12-2.9-17-13.2-12.2-24.8
	c1.4-3.4,3.1-6.6,4.4-10c2.1-5.6,0.7-8.8-5.1-9.5c-6.9-0.8-14.1-1.3-21-0.8c-10.3,0.7-20.4,0.8-30.2-2.8c-2-0.7-3.9-1.5-5.7-2.6
	c-11.5-7.1-12.1-19.2-0.8-26.3c13.3-8.4,27.8-13.3,43.9-9.5c12.7,3,25.4,6,38.1,8.8c2.3,0.5,4.7,0.8,7,0.6c6.1-0.8,11.2,2,16.5,4
	c1.4,0.5,2.4,2.5,3.5,3.9c3.8,5,7.6,9.9,11.4,14.9c2.7,3.7,6.5,5,10.9,4.9c7.3-0.1,14.6-0.3,21.9-0.2c13.9,0.1,22,6.4,26.9,19.4
	c2.4,6.4,3.1,12.7,2.4,19.2c-1.1,10.2-7.8,15.9-18,15.6c-3.4-0.1-6.8-0.6-10.2-0.7c-4-0.1-6.8,1.5-8.4,5.6c-3.3,8.6-3.7,17,0.4,25.4
	c0.4,0.9,0.5,2,0.8,3c2.1,7.2,3.7,8.7,9.1,8.8c5.5,0.1,8.2-1.8,10-8.9c2-7.8,6.5-13.6,12.1-18.8c1.7-1.6,3.7-3,5.8-4
	c7.3-3.4,14.2-2.1,18.8,4.4c3.1,4.4,4.9,9.6,7.1,14.6c1.5,3.3,2.2,6.9,3.8,10.2c3,6.3,5.4,7.2,12.5,6c3.1-0.5,6.2-0.9,9.3-1.4
	c13.2-2.3,25.1,7.7,27.1,19.4c1.2,7.1,2.1,14.7,1.2,21.8c-1.2,9.7-6.9,17.6-15.6,22.2c-3.2,1.7-7.5,1.6-11.3,1.6
	c-3.6,0-7.2-1.1-10.8-1.4c-9-0.7-12.7,1.6-16.6,9.8c-1.4,3-3,6.2-5.1,8.8c-4.2,5.2-9.3,8.9-16.5,9.1c-9.9,0.4-18.5-5.4-20.8-15
	c-2-8.7-2.1-16.9,4.7-24.1c4.9-5.3,9-11.4,13.4-17.2c-3.7-4.2-7.6-4.5-11.5,0.6c-6.1,8-13.6,15-16.5,25.3
	c-3.1,10.9-9.7,19.6-19.9,25.1c-0.9,0.5-1.8,1.1-2.6,1.8c-3.5,3-3.2,7.6,1,9.3c6.8,2.7,13.6,5.4,21.2,4.7c18.5-1.7,37-1.3,55.5,0.3
	c9.3,0.8,18.6,0.3,27.9,1.1c15.7,1.4,30.5,5,43.7,15c9.2,7.1,19.8,12.4,30.2,17.7c4.2,2.1,9.5,2.1,14.2,3c2.1-6.9,1.6-9.8-2.9-12.9
	c-3.8-2.6-8-4.8-12.2-6.8c-14.2-7-29.1-12.8-41.7-22.8c-6.2-4.8-10.2-10.4-9.7-18.5c0-0.8,0.1-1.6-0.1-2.3
	c-3-14.5,5.6-23.1,15.8-30.5c5.8-4.2,12.6-4.4,19.5-3c9.3,1.8,19.4-5.5,20.9-14.8c1.6-10.4-0.2-15.5-8.3-22.1
	c-1.5,0.6-3.1,1.3-4.8,1.9c-1.7,0.6-3.5,1.5-5.2,1.4c-13.8-0.9-27-7.7-28.7-24c-1-9.6,1.1-17.8,8.8-23.8c8.7-6.8,18.5-10.8,29.9-8.3
	c6.9,1.5,13.2,4.2,19.3,8.2c15.4,9.9,31.2,19,46.8,28.3c5.9,3.5,11.5,4,18.5,1.8c11.2-3.5,22.7-4.6,33.8,2.7
	c9.9,6.4,14.7,15.8,16.4,26.4c1.1,7.2-0.7,14.9-1.4,22.4c-0.4,4.4-2,8.7-2,13.1c-0.1,14.1,11.4,24,25.5,22.5
	c16.7-1.8,25,3.4,30.1,21.5c2.4,8.6-1.5,17.4-6.6,25c-7.6,11.3-18.4,18-31.4,20.3c-11.8,2.1-24.2,0.1-30.1-13.7
	c-2.6-6.2-6-12.2-9.3-18.1c-3.2-5.7-4.6-5.5-10.6-3c-17.8,7.4-33.1,0.8-39.1-17.4c-0.4-1.2-0.5-2.6-0.9-3.8
	c-3.2-12.1,0.9-21.4,10.3-29.1c3.4-2.8,6.4-6.1,9-9.6c3-4.2,1.3-8.2-3.6-9.5c-6.5-1.8-12.5-0.9-17.1,4.5
	c-6.1,7.2-12.6,14.1-17.9,21.8c-6.7,9.8-7.2,20.7-1.1,31.1c7.7,13.2,18.9,22.6,33.3,28.3c8.2,3.3,16.2,7.2,24.4,10.7
	c10.5,4.4,16.4,13.6,22.4,22.4c6,8.9-0.4,29.6-17.8,33.2c-8.7,1.8-16-0.5-22.2-6.6c-3.1-3.1-6-6.5-9-9.7c-3.3-3.6-7.2-4.5-10.4-2.5
	c-4,2.5-5.6,6.1-3.4,10.6c4.6,9.3,9.2,18.8,14.9,27.5c7.8,11.8,12.1,24.9,15.1,38.3c4.2,19.2,5.1,38.8,4.6,58.4
	c-0.1,3.6-0.5,7.3-0.6,10.9c-0.1,4.2-0.7,8.4-0.1,12.5c1.5,10.2,5.3,13.9,15.9,11.2c17.2-4.4,30,4,33.8,21.2
	c1.9,8.5,2.9,16.9,0,25.4c-0.5,1.5-0.5,3.1-0.7,4.6c-1.1,8.9,0,11,8.4,15.9c6.9-2.8,9.9-9,11.2-15.6c2.3-11,8.1-18.9,17.4-24.8
	c5.2-3.3,10.8-4,16.5-1.8c4.8,1.9,9.3,4.6,14,6.8c3.5,1.6,7.1,3.4,10.8,4.1c6.7,1.2,11.1-2.5,12-9.2c0.7-5.1-0.2-9.8-3.9-13.8
	c-5.6-6-6.2-13.1-3.5-20.5c1.5-4.1,3-8.5,5.6-12c8.5-11.6,6.1-23.8,2.1-35.9c-1.3-4.1-3.9-8-6.7-11.4c-5.9-7.3-12.9-6.6-17.3,1.6
	c-8.5,15.9-14.2,32.5-13.8,50.8c0.3,13.2-8.2,17.3-18.8,20.5c-4.4,1.4-9.3,1.6-14,1.3c-8.2-0.5-13.4-6.5-16.6-13
	c-5.4-10.9-8-22.6-4-34.8c3-9.2-1.1-14.3-10.6-13.8c-0.3,0-0.5,0.1-0.8,0.1c-14.8,1-26.2-7.1-29.7-21.6c-3.1-13-4.1-26.3-3.8-39.7
	c0.1-6.8,3.6-11.8,8.5-16.1c1-0.8,2.1-1.7,3.3-2.1c3.7-1.3,5.1-7.6,10.4-5.4c8,3.4,17.2,5.3,21.2,14.5c3.6,8.4,7.2,16.8,10.5,25.3
	c1.5,3.8,3.3,6.5,7.8,6.3c3.9-0.2,7.4-2.9,7.9-7.4c0.5-4,0.5-8.5-0.9-12.1c-3.1-8.3-7.1-16.2-11-24.2c-6.8-13.9-5.7-27.3,1.9-40.4
	c6.5-11,20.9-16.5,32.7-12c8.8,3.4,13.9,10.7,16.7,19.5c0.8,2.5,1,5.2,1.9,7.6c2.6,7.2,1.7,14.1-0.8,21.3c-2,5.9-3.1,12.1-3.9,18.3
	c-0.9,7.3,4.3,13.1,11.4,14.2c3.7,0.6,5-1.9,6.8-4.1c4.4-5.5,8.5-11.2,13.5-16.1c8-8,15.4-8.7,25.6-4c3.7,1.7,7.7,3.5,11.7,3.9
	c6.4,0.6,10.3-2.6,11.9-8.8c2.6-10,2.8-20.1,0.1-30.2c-1.4-5.2-4.6-8.6-9.8-10.2c-5.4-1.7-8.8-0.6-12.3,3.8
	c-2.1,2.6-4.1,5.5-6.8,7.4c-12,8.3-25.1,5-33.5-8.2c-3.3-5.2-4.6-11-5.3-17c-0.4-3.3-1.4-6.6-2.7-9.6c-4.5-9.9-5.7-19.4,1.5-28.7
	c6.3-8,8.4-17.8,10.4-27.5c0.6-2.8-0.2-6.4-1.7-8.9c-5.1-8.7-12.5-14.8-22.8-16c-7.2-0.9-14.6-1.3-21.9-1.6
	c-9.1-0.4-17.1-3.1-21.8-11.5c-9-16.1-2.7-41.3,20-43.8c7.6-0.8,15.6,1.2,21.4,7.6c3.3,3.6,7.1,6.7,10.6,9.9
	c6.8-6.9,6.6-15.2-0.5-20c-7.5-5-14.6-11.2-24.3-11.7c-3.6-0.2-7.5-1.2-10.8-0.3c-9.8,2.6-17.3-2-24.6-7.2
	c-11.4-8.2-22.6-16.7-34-25c-1.5-1.1-3-2-4.7-2.8c-10-4.7-13.2-4.2-20.2,4.6c-7.7,9.7-21.1,12.8-32.4,7.2c-12.1-6-24.4-11.7-34.5-21
	c-9-8.3-20.5-9.7-31.7-12c-11.2,3.7-23.7,4.5-31.1,16c-3.8,5.9-8.2,11.6-13.3,16.3c-3.9,3.6-9.1,6.1-14.2,7.9
	c-9.9,3.5-18.5,0.3-25.9-6.6c-8.5-7.9-14.5-16.6-10-29c1-2.6,2.3-5.2,3.8-7.6c1.2-2,3-3.6,4.4-5.5c5-6.9,4.1-11.3-3.7-14.6
	c-4-1.7-8.6-2-12.9-2.7c-3.9-0.6-7.8-0.7-11.6-1.5c-6.7-1.5-11.9-6.7-12.2-15.1c-0.3-11.6,4.6-18.9,14.9-23.1
	c18.5-7.6,36.5-7,54.1,3c7.5,4.3,11.2,10.7,11.5,19.2c0.1,2.1,0.2,4.2,0.4,6.3c0.3,3.9,1.6,7.2,5.8,8.3c4.3,1.2,8.4,1.1,11.7-2.3
	c2.4-2.4,4.5-5.1,6.3-8c6.3-10,15.8-14.1,27.1-14.5c5.7-0.2,11.5-0.1,17.2,0.1c5.8,0.2,11.4,0.8,16.7,3.5c2,1.1,4.5,1.2,6.7,2
	c12.7,4.6,25.5,9.1,38.1,13.9c7.8,2.9,15.5,6.3,23.3,9.2c16.1,6,32.3,11.9,48.4,17.9c10.5,4,20.9,8.3,31.3,12.3
	c2.4,0.9,5,1.4,7.5,2.2c2.2,0.7,4.7,1.1,6.7,2.2c11.4,6.2,23,12.2,33.9,19.2c7.8,5.1,14.6,11.7,21.9,17.7
	c7.1,5.8,14.1,11.6,21.2,17.3c11.1,8.9,16.5,20.6,17,34.7c0.3,8.5-2.9,14.6-10.6,18.4c-1.9,0.9-3.7,2-5.4,3.1
	c-8,5.2-9.2,10.3-3.6,18c3.9,5.4,5.4,11.2,5.8,17.5c0.3,5.2-1.1,9.7-5.2,13.3c-5.7,5-9.1,11.3-10.6,18.7c-1.4,7,1.2,10.1,8.3,9
	c3.8-0.6,7.6-2,10.9-3.8c8.8-4.7,16.9-4.5,24.8,1.8c3.8,3.1,7.9,5.9,12.4,9.2c3-2.9,6-5.1,8-8c4.2-6.3,1.5-12.6-5.6-15.3
	c-4.8-1.9-9.5-4.3-14.1-6.7c-6.1-3.2-10.3-8.4-11.4-15.1c-1-6.4-1.9-13-1.2-19.4c1.2-10.8,14.9-17.3,25-12.3c3.7,1.8,7.5,4.2,10,7.3
	c4.5,5.5,9.8,9.9,15.1,14.6c4.7,4.2,9.2,9.7,11.6,15.5c6,14.5,9.6,29.8,11.4,45.4c1.1,9.3-3.1,16.2-10,21.7
	c-5.3,4.2-10.8,8.2-16.2,12.2c-6.8,5-9.7,11.4-7.6,19.7c1.3,5,2.4,10.2,4.2,15c6.6,17.6,4.5,33.8-7.1,48.6c-1.7,2.2-3.9,4.6-6.4,5.6
	c-10.6,4.1-21.3,6.9-32.7,2.9c-3.4-1.2-7.1-2.1-10.7-2c-6.4,0.1-8.8,3.9-6.9,10c2.5,8.3,11.4,13.7,20.2,12c2.3-0.4,4.6-1.2,6.7-2.2
	c10.2-4.7,18.8-3.1,27.1,4.9c8.1,7.9,14.7,16.1,15.8,27.9c1.5,16.5-8.2,24.8-23.2,26.4c-3.3,0.3-6.7-0.6-10.1-0.8
	c-4.9-0.3-9.9-0.9-14.8-0.7c-5.7,0.3-9.7,3.1-11.3,9.1c-2.4,8.7-3.2,16.8,4,24c2.1,2.1,3.5,5.3,4.4,8.2c3.3,10.7,3.4,21.7,0.6,32.5
	c-4.8,18.5-30.9,32.9-52.7,15c-1-0.8-1.8-1.9-2.9-2.7c-13.5-11.1-24.6-5.7-31.1,8.4c-3.6,7.9-3.9,16.5-2.6,25.3
	c1.1,7.7,1,15.7,0.2,23.4c-1.1,11-7.3,17.2-18.1,18.3c-5.4,0.6-11.2,0.5-16.3-1c-11-3.1-18.8,1.3-25.6,9c-3.1,3.5-5.5,7.6-8.3,11.4
	c-5.7,7.8-13.8,9.9-22.8,9.3c-6.1-0.4-10.2-4.8-12.5-9.7c-5.1-11.1-10.5-22.1-11.5-34.7c-1.5-19.7,15.4-33,33.7-26
	c3.4,1.3,6.5,3.2,9.8,4.8c0.5,0.2,0.9,0.6,1.3,0.8c6.9,3.4,16,1.2,18.7-4.5c3.6-7.7,0.3-15.8-8-18.9c-2.9-1-6.1-1-9.2-1.3
	c-4.7-0.5-9.3-1.1-14-1.1c-12.5,0.1-23.6-13.7-23.9-25c-0.2-6.3,0-12.6-0.5-18.8c-0.3-3.5-1.1-7.4-2.9-10.3
	c-4.5-7.4-12.7-7.5-16.9,0c-4.1,7.4-6.4,15.2-0.9,23.6c6.5,10.2,8.9,21.7,7.8,33.7c-0.9,9.2-6.2,15.1-14.3,19
	c-7.8,3.7-14.4,2-21-3.2c-4-3.2-6.9-6.9-9-11.5c-3.4-7.5-7.8-9-13-3c-11.2,12.8-26.8,16.5-41.3,22.7c-16.8,7.2-33.3,14.9-49.9,22.5
	c-2.3,1-4.3,2.7-6.2,4c3.1,10,7,12.9,16.1,13.8c18.5,1.9,34-5.4,48.8-15.3c6.7-4.5,13.5-8.9,20.4-13.1c9.4-5.6,13.8-5.1,21.3,2.8
	c8.6,9,19.3,14.4,31,17.3c14.3,3.6,18.5,15.1,15.6,27.8c-1.5,6.4-6,10.2-12.5,11.4c-3.1,0.6-6.2,0.9-9.3,1.4
	c-4.3,0.7-8.2,0.1-12-2.2c-4.2-2.6-8.6-4.9-13.2-6.7c-3.1-1.2-6.5-1.9-9.8-1.9c-5.6-0.1-9.4,4.9-8.6,10.5
	c1.3,8.3,7.5,14.8,15.6,16.7c3.5,0.8,6.5,0.2,9.8-1.2c4.8-2,9.7-3.8,14.8-4.6c13.3-2.2,20.6,2,26.3,14.3c1.3,2.8,2.2,5.9,3.5,8.7
	c0.8,1.8,2,3.5,3.8,6.7c1.3-3.7,2.4-6,2.8-8.4c2.3-14.5,18.1-24.2,30.6-24.9c8.5-0.5,15.8,2.8,19.6,10.5c3.8,7.7,4.4,16-1.5,23.7
	c-3.8,5-6.9,10.4-10.2,15.8c-2.8,4.5-2.3,8.1,1.2,12.1c1.2,1.4,2.6,2.6,3.8,3.9c10,10.8,9.5,24-1.6,33.7
	c-14,12.3-30.5,15.2-48.3,11.4c-8.5-1.8-11.9-8.6-14.7-15.9c-3.6-9.5-7.3-19-11.4-28.3c-4-8.9-6.6-10.1-15.9-6.6
	c-9.3,3.4-18.2,7.8-27.4,11.5c-10.2,4.1-21,6.4-31.9,6.9c-3.7,0.2-7.9-1.1-11.1-3c-10-6.2-20.3-11.7-31.3-15.9
	c-9.9-3.8-21.5-1-27.5,8.3c-4.7,7.3-12,10.6-19.2,12.6c-17.9,5.1-35.7-11.9-32.1-30.4c3-15.6,12.2-27.6,24.4-37.2
	c2.8-2.2,6.5-3.4,10-4.3c15.7-4.1,30.5-2.2,44.2,6.8c4.8,3.2,9.7,6.3,14.7,9c5.5,2.9,10,1.7,13.9-3c4.7-5.6,2.5-12.6-4.7-14.3
	c-9.4-2.2-18.8-4.4-28.3-6c-12.8-2.2-24.5-7.1-36.1-12.7c-10-4.9-16.5-12.1-17.2-24.1c-0.6-10.1-4-14.2-13.9-16.1
	c-11.2-2.2-22.7-3.3-34.1-4.4c-15.8-1.5-31.7-2.6-47.6-3.6c-7.3-0.5-14.6-0.9-21.9-0.4c-3.9,0.3-8.1,2-11.5,4.2
	c-3.4,2.2-2.3,5.7,1.8,6.6c3.6,0.8,7.2,1.3,10.8,1.5c9.4,0.4,18.8,0.1,28.2,0.7c14.9,0.9,29.7,2.7,43.9,7.3
	c17.4,5.6,22.4,25.1,10.3,38.4c-4,4.4-9.2,6.1-14.7,6.3c-19.1,0.8-38-0.6-56.4-6.7c-8.4-2.8-17.1-4.9-25.9-6
	c-9.7-1.3-18.7,0.7-27.4,6.5c-11.5,7.5-22.1,15.7-30.8,26.3c-0.5,0.6-1.1,1.1-1.6,1.7c-6.8,8.2-6.2,11.9,2.8,17.2
	c8.2,4.8,13.9,11.7,17.7,20.3c0.7,1.7,1.3,3.4,2.1,5.1c3.8,8.8,12.3,11.7,20.2,6.2c4-2.8,7.5-6.5,10.8-10.2c2.5-2.8,1.8-5.1-1.4-7.1
	c-3.1-1.9-6.3-3.7-9.8-5c-8.8-3.2-14.6-12.4-13.1-24.2c1.2-9.8,9.7-18.4,19.3-20.2c9.2-1.8,17.1,1,24.1,6.6
	c7.1,5.7,13.9,11.8,20.5,18.1c7,6.8,11.7,7.5,19.9,1.7c7.4-5.2,15.2-9.2,24.5-9.4c8.3-0.1,13.9,4.1,15.8,12.1
	c6,26.1-18.5,49.5-44.4,42.4c-2-0.5-4.1-0.9-6.1-1.2c-3.6-0.4-6.8-0.3-8.1,4.1c-1.4,4.6-0.7,7.7,3.5,9.9c6,3.2,12.2,5.8,18.4,8.6
	c2.1,1,4.5,1.5,6.6,2.4c9.8,4.5,14,12.3,12.7,22.8c-1.2,10.2-7.8,16.3-17,19.6c-3.3,1.2-7.2,1.4-10.8,1.4c-18-0.2-36-0.8-54.1-0.9
	c-11.2-0.1-22.4,0.8-33.6,0.9c-7.6,0.1-15.1-0.3-22.7-0.7c-7.6-0.4-15.1-1.2-22.7-1.5c-7.6-0.3-12.7,3.8-13.1,11.3
	c-0.4,6.5,0.2,13,0.8,19.5c1.2,13-4,18.7-17.1,19.5c-9.7,0.6-17-2.7-21.7-10.9c-3.7-6.4-9.6-9.4-15.8-12c-7.2-3-13.7-1.2-18.9,4.8
	c-2.2,2.6-4.3,5.3-6.1,8.1c-5.3,8.3-13.2,11.2-22.3,9.5c-8.1-1.5-12.9-7.9-15.6-15.1c-3.7-10-6.2-20.5-6.8-31.3
	c-0.6-10.9,4.7-19.1,15.1-22.9c2.4-0.9,5-1.4,7.5-2.3c6.2-2.5,11.4-6.3,14.4-12.6c2.2-4.7,4.7-9.3,6.8-14.1
	c4.1-9.2,11.9-12.9,21.1-14.2c6.8-0.9,14.7,4.8,17.4,12.2c2.5,6.6,2.2,13.3,1.3,20.1c-0.4,2.8-0.5,5.6-0.8,8.7
	c5.8,1.5,9.9,0,13.2-3.8c2.2-2.6,4.1-5.4,6.2-8.1c2.4-3.1,4.7-6.3,7.4-9.1c8.9-9.2,17.1-10.3,28.1-3.9c2,1.2,4.1,2.2,6,3.2
	c1-0.6,1.9-0.9,2.3-1.4c6.6-10.6,0.4-26.3-11.5-29.6c-8.1-2.2-15.4-1.9-23.4,1.7c-8.4,3.7-17.9,4.2-25.6-3c-3.6-3.4-7-7-10.5-10.5
	c-5.2-5.2-12.6-6.5-19.2-3.3c-8,4-15,9.1-20.2,16.8c-7.9,11.7-17.3,22.4-28.6,30.9c-10.7,8-23.4,9.6-36.5,8.2
	c-6-0.6-11.9-1.4-17.9-2c-4.9-0.4-10.1,3.8-10.6,8.4c-0.5,4.4,2.2,8,7.3,9.4c5,1.4,10.3,2.3,15.1,4.3c5.5,2.3,11,5,15.7,8.5
	c7.1,5.3,9.8,17.7,6.4,27.3c-1.5,4.2-3.7,8-5.7,12c-5,9.8-3.8,15.9,4.8,22.5c6.2,4.8,12.4,9.5,16.8,16.2c6.7,10.3,6,21,0.9,31.3
	c-4.9,9.7-17.9,11.8-26.2,4.5c-7.9-6.8-15.2-14.3-23-21.2c-10.3-9.1-22.6-6.6-28.6,6c-2.4,4.9-5.2,9.1-9.9,11.7
	c-7.5,4.3-15.2,5.3-23.1,0.9c-0.7-0.4-1.3-0.9-2.1-1.1c-14.6-5.4-17.6-17.3-17.1-31c0.1-2.6,0.6-5.2,1.7-7.6
	c5.8-13.3,15.8-21.7,30.1-24.8c4.8-1,9.6-2.2,14.5-2.7c6.2-0.7,10.9-5.7,10.5-12c-0.6-7.5-4.8-11-12.5-10.1
	c-4.9,0.6-9.8,1.6-14.7,1.7c-12.5,0.2-21.3-6.3-24.4-18.6c-1.6-6.2-1.8-12.9-2.2-19.4c-0.5-7.1-0.1-14.1,2.7-20.8
	c3.2-7.9,7.4-15,15-19.5c6.7-4,13.4-8.1,20.1-12.2c2.2-1.4,4.4-2.8,6.4-4.5c2.4-1.9,1.4-4.2,0.1-6.3c-1.4-2.5-3.6-2.9-6-1.7
	c-1.2,0.5-2.3,1.3-3.3,2.1c-6.3,6-14.5,7.2-22.4,8.2c-12.9,1.7-22.7-4.4-26.5-16.9c-2.4-7.9-3.8-16.3-4.3-24.6
	c-0.6-9.6,0.2-19.3,0.7-29c0.6-11.4,4.7-21.3,13.8-28.8c1.6-1.3,2.9-3,4.3-4.5c11.9-12.9,13.8-24.1,6.4-40.1
	c-1.3-2.8-3.2-5.4-5.4-7.5c-4.7-4.5-10-8.4-14.6-13c-3.5-3.4-7.3-7.1-9.2-11.4c-5.3-12.2-9.7-24.6-9.5-38.4
	c0.2-18.3-0.8-36.5-1.2-54.8c0-0.8,0.2-1.7-0.1-2.3c-1-1.7-1.8-4.2-3.3-4.7c-3-1-4.1,2-4.5,4.2c-1.1,5.4-2.2,10.8-2.4,16.2
	c-0.3,11.5,0,23,0.1,34.5c0.1,11,0.9,22,0,32.9c-0.8,10.4,3.4,18,10,25.2c6.5,7.1,12.5,14.7,18.2,22.4c6.1,8.3,5.9,17.7,2.3,26.9
	c-4.4,11.4-17.1,13.8-26.2,5.4c-1.5-1.4-3-2.9-4.6-4.2c-0.3-0.2-1,0-2.1,0c-0.3,1.6-1,3.3-0.9,4.9c0.5,14.9,1.3,29.7,1.8,44.6
	c1,27.9,2.1,55.8,2.6,83.7c0.2,13-0.4,26.1-1.2,39.1c-0.6,10.4,4,17.3,12.8,22.1c6.9,3.7,13.6,7.7,20.4,11.6
	c9.8,5.7,13.9,14.6,13.5,25.6c-0.3,10.8-9.5,17-19.7,13.1c-4.3-1.6-8.3-4.3-12.4-6.5c-2-1.1-3.9-2.3-6.6-3.9
	c-0.8,2.3-1.9,3.9-1.9,5.5c0.1,7.5,0.6,15.1,0.9,22.6c0.2,3.4,0.3,6.8,0.5,10.2c0.6,10.4,1.2,20.8,1.9,31.2c0.3,4.7,2.6,7.6,7.6,8.4
	c6.6,1,12.2,4.4,17.1,9c8.4,7.8,10.8,18.8,6.2,29.3c-0.6,1.4-1.4,2.8-2.1,4.2c-5.9,10.3-3.7,20.1,1.5,29.7c1,1.8,2.7,3.1,4.3,4.5
	c3.4,2.9,7,5.5,10.3,8.4c12.9,11.1,24.4,5.9,33.8-3.5c3.2-3.2,2.2-7.4,0.2-10.9c-2.4-4-5-8-8.1-11.5c-11.8-13.8-12.2-28.9-5.3-44.7
	c5.3-12,11.8-23.3,24.3-29.6c11.1-5.7,21.8-6.2,32.7,0.6c9.8,6.2,12.9,15.3,12.1,26.2c-0.4,5.7-4.5,9.1-8.7,12.4
	c-3,2.4-6.3,4.8-8.5,7.8c-3.2,4.2-2.7,5.7,0.8,9.5c0.7,0.8,1.5,1.4,2.2,2.2c7.4,9.4,17.5,12,29,12.4c9.2,0.3,14.8-5.7,21.7-9.5
	c1.1-0.6,1.5-3.3,1.4-4.9c-0.4-6.1-3-11-8.3-14.3c-5.5-3.4-8.5-8.3-8.9-14.8c-0.6-10,6.4-18.6,16.5-19.3c4.3-0.3,8.8,0.4,13.1,1.3
	c7,1.4,9.8,0.2,11.2-7c1.3-6.4,1.9-12.9,2.9-19.4c1.4-8.8,4.4-17.2,9-24.9c2.9-4.9,6.9-8.6,12.7-9.6c11.5-2.1,17.6,1.9,21.6,12.9
	c8,22.3,4,43.2-7.3,63.2c-3.1,5.4-7.2,10.3-10.3,15.7c-3.1,5.4-5.8,11.1-8.3,16.8c-1.1,2.6-2,6.2,1.1,7.8c2.2,1.2,6,1.9,8,0.8
	c5-2.7,10.4-5.7,13.7-10.1c7.4-9.9,13-20.8,12.7-33.8c-0.1-4.7,0.1-9.4,0.7-14.1c1.2-9.5,11.8-17,21.2-15.1
	c5.4,1.1,12.1,9.8,13,17.3c0.4,3.6,0.5,7.3,0.5,11c0.1,21.7,0.9,43.4-0.1,65.1c-0.7,14.5-2.9,29.1-6.3,43.2
	c-5.5,22.8-24.8,29.4-45.3,24.9c-15.8-3.5-21-25.4-9.5-37.4c2.3-2.4,4.9-4.5,7.6-6.9c-4-6.1-9.7-6.2-15.4-5.9
	c-5.1,0.2-8.9,3.1-11,7.7c-1.9,4.3-3.3,8.8-5,13.2c-2.8,7.3-5.2,14.8-8.6,21.8c-4.7,9.5-15.9,15.5-26,13.9
	c-3.6-0.6-7.5-2.4-10.3-4.8c-4.6-3.8-8.6-8.3-12.7-12.7c-4.1-4.4-9.1-6.6-15.2-7.1c-7.7-0.6-14.6,0.1-21.2,5.3
	c-7.1,5.7-9.2,13.4-9.9,21.3c-0.3,3.8,3.2,7.9,5.3,11.8c3.5,6.4,8,12.3,10.7,19c4,9.7,3.1,19.9,0.7,30c-1.2,4.8-2.3,9.7-2.7,14.6
	c-0.6,7.5,4.8,11,11.8,7.7c7-3.3,8.9-10,9.9-16.7c1.2-7.7,1.3-15.6,2.2-23.4c0.6-5.2,1.7-10.3,2.6-15.4c1.5-8.3,7.1-12.6,14.7-14.2
	c16.6-3.6,31,7.4,32.8,24.5c0.3,2.9,1.1,5.8,0.8,8.6c-1.1,10.6,2.4,20.2,6.4,29.5c2.7,6.1,6.9,11.6,10.5,17.4
	c5.6,9.1,9,18.7,8.2,29.6c-1.1,13.8-8.9,22.7-22.5,25c-0.8,0.1-1.6,0.2-2.3,0.3c-15.5,1.7-20.4-0.9-27.5-14.9
	c-1.3-2.6-2.1-5.4-3.6-7.8c-6.6-11-17.8-11-23.9,0.1c-2.3,4.3-3.7,9.1-5.5,13.7c-0.4,1-0.5,2-0.7,3.1c-4.3,19.5-17.6,29.4-36.2,33.1
	c-7.9,1.6-15.9,3.6-23.8-0.3c-10.1-5.1-19.9-10.3-25.6-20.9c-7-13.2,3.3-34,19-33.5c2.8,0.1,5.6,1,8.4,1.6c2.6,0.5,5.3,1.4,7.1-1.4
	c1.7-2.7,1.4-5.6-0.6-8.1c-1.4-1.8-3-3.6-4.7-5.2c-8.1-7.6-13.3-16.8-14.6-27.8c-0.8-6.5-1.4-13.1-0.7-19.5c0.6-5,3.1-9.8,5.4-14.4
	c2.6-5.1,5.7-9.9,5.6-16c0-3.7-1.5-5.9-5-6.8c-1.3-0.3-2.6-0.5-3.9-0.6c-8.2-0.9-9.6,0.2-11.5,7.9c-0.2,1-0.3,2.1-0.6,3.1
	c-2.9,11.6-8.5,15.6-20.4,16.4c-8.5,0.5-14.8-1.9-18.9-9.6c-8.5-15.8-4.5-34.6,9.9-45.4c3.3-2.5,7-4.6,10.4-7
	c1.7-1.2,3.5-2.3,4.9-3.8c3-3.3,1.9-6.7-2.5-7.3c-2.2-0.3-4.6,0.3-6.9,0.6c-12.6,1.8-25.2-8.4-26.1-21.1c-0.3-3.6-0.1-7.3-0.2-11
	c-0.1-1.5,0.1-3.6-0.7-4.5c-1.5-1.5-3.7-3-5.7-3.1c-1.3-0.1-3.7,2.3-3.9,3.8c-2.3,18.1-5.1,36.2-3.3,54.6c0.7,6.7,1,13.5,1,20.3
	c-0.2,18-0.8,36-1,54.1c0,3.2-1.4,7.8,2.6,8.9c2.7,0.8,6.6-0.7,9.3-2.3c6.6-3.8,13.5-6.8,21.1-8.1c18.6-3.2,30.9,11.8,28.1,29.6
	c-0.3,1.7-1.2,3.5-2.3,4.8c-4.5,5.1-8.8,10.3-13.8,14.9c-8.3,7.7-9.8,23-4.6,33.1c5.9,11.5,10.9,23.7,14.9,36
	c2.2,6.8,2.2,14.6-4,20.5c-10.4,10-27.9,5.3-33.3-8.8c-2.7-7-6-13.9-9.2-20.7c-0.9-2-2.6-3.7-4.1-5.8c-3.9,2.5-4.6,5.7-4.9,9
	c-0.4,4.2-1,8.4-0.6,12.5c2,19.8-0.7,39.6,0.1,59.3c0.4,11,1.2,21.9,1.2,32.9c0,19.3-0.4,38.7-0.7,58c0,2.8,0,5.6,0,9.3
	c4.5,0,8.3,0,12.1,0c9.6-0.1,19.3,0,28.9-0.2c11.5-0.3,23-0.7,34.4-1.6c6-0.5,8.4-3.6,9.2-9.8c0.4-2.8,0.2-5.7,0.5-8.6
	c0.5-5.4-1.7-9.2-6.5-11.4c-5-2.3-10.2-2.6-14.8,1.2c-3.2,2.7-6.2,5.6-9.2,8.5c-4.5,4.4-9.9,6.6-16.1,7.3
	c-13,1.5-24.7-7.7-25.3-20.9c-0.5-13.6-0.3-27.2,0.1-40.8c0.2-8.9,1.1-17.7,2-26.6c0.9-8.8,4.7-15.9,12.8-20.3
	c11.5-6.3,25.6-4.2,29.6,13.8c1.3,5.9,0.9,11.9-1.4,17.7c-1.2,3.1-2.5,6.4-2.9,9.7c-0.2,2,0.5,5.2,1.9,6.1c1.9,1.2,4.8,0.8,7.3,0.6
	c1.1-0.1,2.4-1.2,3.1-2.2c4.7-6.2,11.2-10,17.6-14.1c8.1-5.1,16.4-7.6,26-4.5c4.2,1.4,8.8,2.2,12.1-2.5c2.7-3.8,3.2-14.2,0.1-17.1
	c-2.1-1.9-5.4-3.1-8.3-3.4c-5.2-0.5-10.5-0.6-15.6,0.1c-10.7,1.6-21.7-9.5-23.8-18.8c-2.4-10.6,2.9-19.4,12.8-25.3
	c7.9-4.7,16.1-5.5,24.7-1.6c4.2,1.9,8.9,3.1,13.3,4.5c5.3,1.8,9.5,0.2,13.4-3.8c4.9-5,10.1-9.8,15.6-14.2c6.5-5.3,14.1-7.8,22.5-8.1
	c12.9-0.4,22.3,7.5,24.9,20.2c2.1,10.3-0.3,19-7.2,26.8c-3.8,4.3-7.4,8.8-10.3,13.8c-4,6.9-2.3,10.5,5.3,12.8
	c4.6,1.4,9.2,2,13.3-1.7c1.1-1,2.7-1.6,4.1-2.2c9.3-3.9,13.2-11.7,14.2-20.9c0.9-7.8,0.5-15.6,0.7-23.5c0.4-12.8,9.8-21.6,22.3-21.1
	c6.4,0.2,11.5,3,13.6,8.8c3,8.2,8,15.1,12.5,22.4c7,11.3,8,23,1.5,34.9c-1.8,3.4-3.5,7-5.1,10.6c-2.4,5.4-3.4,10.7,0.1,16.4
	c4.6,7.4,5.5,15.8,4.4,24.2c-0.5,3.7-1.8,7.8-4.1,10.6c-10.5,12.9-33.3,17.6-46.8,2.3c-3.9-4.4-9.1-7.8-14-11.2
	c-2.4-1.6-5.6-2-9.6-3.3c-0.3,4.5-0.7,7.7-0.8,11c-0.3,13.8-8,21.7-21.8,22.4c-0.5,0-1.1,0-1.6,0c-13.3,1.9-22.9-2.8-28.3-15.4
	c-0.5-1.2-1.3-2.3-2.2-3.2c-2.2-2.5-4.2-6.2-8-5.3c-4.3,1.1-7.1,4.7-7.7,9c-0.6,3.8-0.4,7.8-0.2,11.7c0.3,7.8,0.9,15.6,1.2,23.4
	c0.3,6.9,0.8,7.9,7.6,7.9c15.4,0,30.8-0.5,46.2-0.7c16.4-0.1,32.8-0.3,49.3,0c14.6,0.2,29.2,1.1,43.8,1.5c5.9,0.2,8.3-1.5,9.9-7.9
	c2.4-9.3,6.8-17.4,12.1-25.3c0.6-0.9,1-1.8,1.7-2.7c10.6-14,20.6-15,37.3-7.3c14.3,6.6,16.9,17.1,10.3,31.9
	c-3.4,7.6-1.6,11.2,6.5,12.6c17.1,2.9,34.4,2.3,51.6,2c3.6-0.1,7.6-0.6,8.8-5c1.2-4.3,0.4-8.4-3-11.5c-1.7-1.6-4-2.5-5.8-3.9
	c-6.1-4.8-12.5-9.4-18-14.9c-2.3-2.3-4-6.5-3.8-9.7c0.3-7.2,1.5-14.4,3.1-21.5c1.1-4.8,5.1-7.7,9.2-10.1c4.3-2.5,8.5-5,12.8-7.5
	c14.5-8.3,13.2-19.7,9.8-31c-0.5-1.7-1.7-3.3-2.2-5c-2.2-6.8-7.4-9.2-13.8-9.6c-10-0.7-18.3,3.7-25.5,10
	c-5.1,4.5-8.4,10.4-11.3,16.6c-3.6,7.8-7.5,15.6-12.6,22.4c-7,9.5-20.3,16.2-31.9,6.7c-2.8-2.3-6.2-3.7-9.4-5.6
	c-8.1-4.8-14.5-11.1-16.6-20.7c-2.2-9.7,1.8-17.4,8.5-23.9c3.5-3.5,7.7-6.4,11.1-9.9c7.2-7.3,4.4-19.3-5.3-22.8
	c-2-0.7-4-1.1-6.1-1.5c-7-1.5-12.9-4.7-18.6-9.3c-16.8-13.1-26.3-30.9-32.4-50.5c-2.3-7.3-2.4-15.5-2.2-23.2
	c0.3-10.4-1.7-19.1-7.8-28.3c-9.3-14-16.2-29.8-20.7-46.2c-1.3-4.6-1.8-10.1-0.6-14.7c3.6-14.1,15.7-18.3,28.1-12.2
	c5.9,2.9,10.3,7.9,12.4,14.6c1.1,3.4,1.8,7,6.4,9.3c0.7-4.8,1.5-9.1,2-13.4c0.8-6.6,4.1-11.9,8.7-16.2c9.6-9,23.2-5.1,26.3,7.6
	c0.9,3.7,0.7,7.7,0.6,11.6c0,7.8-0.4,15.6-0.4,23.5c-0.1,20.4-0.1,40.8,0,61.1c0,4.9,0.5,9.9,1.4,14.7c1.4,6.9,7.1,9.6,13.6,6.9
	c1-0.4,1.8-1,2.7-1.7c15.5-12.5,33.3-10,50.9-7.3c4.1,0.6,8.5,2.9,11.8,5.7c9.3,8,6.9,22.7-4.3,27.8c-3.8,1.7-7.9,2.6-11.8,4.1
	c-2.4,0.9-5.1,1.6-7,3.2c-2.7,2.2-6.7,4.3-5,8.8c1.8,4.5,4.8,8.4,10.2,8.6c15.2,0.6,29.2-1.3,38.1-16.1c4.3-7.1,10-13.3,14.7-20.2
	c3.6-5.3,8.9-6.8,14.6-7.9c14.8-2.6,29.6-3,44.4-1c17.3,2.4,20.6,15.2,14.8,28.9c-3.4,8.2-10.3,13.7-19.6,15.2
	c-3.4,0.5-6.7,1.3-10,2c-2.8,0.6-6,0.7-6.4,4.5c-0.4,3.8,0.1,7.4,3.6,9.7c1.1,0.7,2.3,1.2,3.5,1.8c5.9,2.8,11.9,5.4,17.6,8.4
	c13.1,6.9,17.3,18.5,11.7,32.4c-2.6,6.5-5.6,12.9-8.4,19.4c-1,2.3-1.9,4.8-2.9,7.5c1.6,1,2.8,2,4.2,2.5
	c11.4,3.6,19.7,13.6,20.8,25.5c0.1,1.3,0.1,2.6,0.1,3.9c1.1,23.7-22.5,28.3-35.4,20.3c-6-3.7-11.7-7.8-17.7-11.5
	c-3.7-2.3-7.4-0.3-7.9,3.9c-0.5,3.9,1.4,5.9,5.5,8.5c5.2,3.3,10.6,6.7,14.8,11.1c5.5,5.8,4.5,14.6-1.3,20.4
	c-1.2,1.3-2.8,2.2-5.7,4.6c3.7,0.2,5.3,0.4,6.9,0.4c7.8,0,15.7,0.2,23.5-0.2c8.9-0.4,17.7-1.2,26.5-2.1c5.2-0.5,9.1-3.5,12.6-7.3
	c3.2-3.5,6.4-6.9,9.9-10.1c7.5-6.8,15.9-7.6,25.5-4.5c5,1.6,10.7,1.8,16.1,1.7c2.3,0,5.5-1.5,6.7-3.4c3.7-5.9,7.4-12.1,9.6-18.6
	c2.8-8.4-0.8-15.3-7.9-20.2c-1.3-0.9-3.6-1.2-4.9-0.7c-3.9,1.5-7.7,3.3-11.2,5.4c-10.3,6.4-21.6,7.6-33.2,6.5
	c-9.8-0.9-17.5-9.9-18-19.6c-0.9-16,8.7-27.5,24.6-29.5c0.3,0,0.5-0.1,0.8-0.1c9,0.2,16-3,20.5-11.4c6.4-12.1,28.2-12,36.1-1.8
	c1.4,1.8,3.1,3.5,5,5c5.7,4.5,8.5,4.8,14.7,0.5c5.5-3.8,11.1-6.3,18-6.8c17.4-1.3,29.9,11.1,28,28.4c-1,9.6-9.9,18.5-20.7,21
	c-2.6,0.6-5.1,1.6-7.6,2.4c1.1,4.9,4.7,4,7.1,5.1c8.6,3.7,14.3,9.7,15.1,19.2c0.9,10.4-5.2,19-15.2,21.9c-3.2,1-6.6,1.7-10,2.1
	c-5.8,0.7-8.7,4-9.9,10.1c6.7,0.7,13,1.6,19.4,2c13,0.9,26,3.2,39,0.2c5.6-1.3,11-3.2,16.4-5c4.3-1.4,6.9-4.2,7.6-9
	c1.4-9.1,6.8-16.3,12-23.5c3.2-4.3,7.9-5.9,13-6.2c3.4-0.2,6.8,0,10.2-0.1c10.1-0.2,15.9-6.4,15.7-16.2c-0.1-5.7-3.2-9.5-8-11.5
	c-8.6-3.4-17.3-4.3-25.3,1.7c-6.1,4.5-12.3,8.8-18,13.8c-6.3,5.5-13.6,6.3-21.3,5.5c-5-0.5-8.9-3.5-11-7.9
	c-4.3-9.3-5.1-18.6,1.3-27.5c3.8-5.3,7.5-10.7,11.3-15.9c3.6-4.9,5-10.2,4.4-16.2c-0.8-8.1-7.2-11.4-14.3-7.2
	c-10.8,6.4-18.6,5.8-27.7-2.7c-4.4-4.1-8.5-8.4-12.4-12.9c-5.9-6.9-14.1-7.3-22.1-8c-4.9-0.4-10.1,0.8-14.8,0
	c-12.7-2.3-22.3,3.1-31.2,11.1c-1.7,1.6-3.5,3.1-5.2,4.8c-12.2,11.5-27.5,13.2-43.1,12.6c-10.4-0.4-24.5-11.9-26.1-25.6
	c-2.2-19.1,12.6-32,31.4-26.9c4.8,1.3,9.1,1.7,13-3.4c-1.7-1-3.1-2.2-4.6-2.5c-3.8-0.7-7.7-1.1-11.6-1.5c-8.6-0.9-14.5-5.6-18.3-13
	c-5.3-10.4,1-22.6,12.6-23.1c14.3-0.7,28.7,0.1,43.1,0.2c11.7,0.1,23.4,0.2,35.2,0.2c12.8,0,25.6,0.3,38.4-0.3
	c20.7-0.9,40.1-6.2,57.3-18.4c4.5-3.2,8.8-6.7,13.6-9.1c13.5-6.7,24.8-6.1,33.5,5.5c1.2,1.6,2.4,3.5,2.8,5.5
	c4.7,21.3-8.7,42.2-29.9,48c-10.5,2.9-20.9,4.3-31.7,4c-6.3-0.2-9.6,2.2-10.9,6.8c-1.1,3.9,0.1,6.1,4.2,6.6
	c5.2,0.6,10.5,0.4,15.6,1.1c6.7,0.9,13.4,1.9,19.9,3.7c10.4,2.9,14.8,10.8,15.9,21c0.4,4.1,0.9,8.3,1.7,12.4
	c0.5,2.6,1.6,5.4,4.9,5.1c3.3-0.2,5.5-2.6,5.3-5.7c-0.3-5.1-1.3-10.3-2.2-15.4c-1.1-6.1-3.8-12.3-3.5-18.3
	c1.1-19.5,12.9-25.9,29.4-23.7c5.8,0.8,9.7,5,13.5,8.9c4.2,4.3,8.1,8.9,12.1,13.3c3.4,3.8,7.9,4.9,12.6,2.6
	c3.5-1.7,6.7-4.1,10.2-5.8c5.1-2.5,10.2-5.5,15.7-6.8c14.9-3.6,33.4,10.9,33.1,25.6c-0.1,3.7,0.2,7.3,0,11
	c-0.7,10.6-7.9,18.5-18.5,20.1c-13.4,2-26.5,0.2-39.4-3.7c-3.2-1-6.6-1.8-9.9-1.8c-8.4-0.1-14.5,8.1-12.2,16.1
	c1.6,5.6,4.1,6.8,9.9,5.6c5.6-1.1,11.2-1.7,16.9-2.1c6.4-0.5,10.9,3.1,14.3,8.1c8.8,13.1,10.8,31.3-3.5,45
	c-6.2,5.9-12,12.3-17.6,18.9c-2.5,2.9-4.3,6.5-5.8,10.1c-1.2,2.8,0.5,5,3.3,4.7c3.5-0.4,7.2-1.4,10.3-3.1c17-9,33.8-18.5,50.9-27.3
	c6.4-3.3,13.9-4.5,20.6-7.4c12.2-5.2,24-11.4,34.7-19.3c1-0.8,2-1.7,2.7-2.8c2.3-3.7,0.6-6.9-3.7-6.7c-2.5,0.1-5.1,1-7.5,1.8
	c-7.4,2.5-14.6,5.5-22.1,7.7c-3.4,1-7.3,1-10.9,0.6c-7-0.9-11.9-4.4-13.7-11.9c-2-8.5-1.8-17.3,3.7-23.6
	c6.3-7.1,14.3-13.1,24.5-14.4c5.6-0.7,9.7-3.4,13.5-8.6c-2.7-4.2-5.4-8.5-8.2-12.8c-3.9-5.8-8.5-11.3-11.8-17.5
	c-2.3-4.2-3.7-9.3-4-14.1c-0.7-10.7,3.3-17,11.9-20.8c10.6-4.7,19.2-3.6,26.7,3.9c2.5,2.5,4.5,5.7,6.5,8.7c1.2,1.7,2,3.7,2.8,5.6
	c1.3,3.1,3.7,4.9,6.7,3.8c1.7-0.7,3.2-3.2,3.8-5.1c1.1-3.7,1.3-7.7,2.1-11.5c0.7-3.6,1.7-7.1,2.6-10.6c3.5-13.7,24.3-18.7,34.4-11
	c16.2,12.3,23.2,28.4,20.7,48.6c-0.8,6.5-8.3,13-15.9,14.4c-7.9,1.5-15.8,3.2-23.8,4.3c-7.1,0.9-10.3,5.1-12.5,12.5
	c3.8,0.2,7.1,0.5,10.3,0.4c6.3-0.2,11.4,1.7,14.1,7.8c2.9,6.6,2.1,12.8-3,18.1c-2.5,2.6-5.4,5-7.8,7.8c-2.1,2.4-5,4.7-4.2,9.2
	c4.8,0.1,8.7-1.8,12.1-4.5c21.3-16.6,41.2-34.3,56.7-56.8c10.8-15.6,17.5-32.6,22.4-50.5c1.8-6.7,1.4-14,2-21
	c0.2-2.6,0.1-5.3,0.7-7.8c1.9-7.4-1-13.4-5.1-19c-4.2-5.7-13.8-7.3-20.7-3.4c-3.1,1.8-6.1,4.1-8.4,6.9c-7.2,8.6-16.8,13.3-27.2,16.3
	c-12.6,3.6-24.2-4.9-25.6-18.1c-0.3-2.6,0-5.2-0.3-7.8c-0.8-6.6-3.7-9.2-10.2-9.5c-10.6-0.6-12.9,1.6-13.1,12.4
	c-0.1,3.9,0,7.8,0,11.8c-0.1,7.4-3.4,13.6-7.6,19.3c-0.4,0.6-1.1,1.1-1.7,1.6c-7.7,5.9-24.5,4.6-31.1-2.5c-0.7-0.8-1.3-1.6-2-2.4
	c-8.7-10-22.6-8.1-29.1,3.7c-3.5,6.4-7.4,12.6-11.5,18.6c-3.2,4.7-7.7,7.7-13.4,8.8c-3.8,0.7-7.6,1.9-11.4,3
	c-6.6,1.8-12.1-0.3-15.9-5.6c-7-9.6-8.9-20.5-6.8-32c1.1-6.1,5.5-10.7,10.1-14.6c7.2-6.1,14.4-12.1,23.9-14.6
	c5.6-1.4,9.8-4.8,12.7-9.7c6.1-10.4,15.9-13.7,27.2-13.9c4.2-0.1,8.4,0.3,12.5,0.1c8.5-0.4,14-6.1,14.2-14.6c0.1-4.3-2.6-8-7.2-8.9
	c-3-0.6-6.5-0.8-9.2,0.1c-11.6,4-22.5,2.7-33.2-3c-4.8-2.5-10-2.9-15.1-0.6c-5.8,2.6-9.1,7.3-9.5,13.4
	c-1.5,22.2-14.7,37.2-30.7,50.5c-3.2,2.7-6.3,5.6-9.9,7.6c-9,5.2-18.4,3-25.1-5.3c-5.2-6.3-4.3-17.8,1.9-24.5
	c7.3-7.8,14.7-15.5,22-23.4c1.2-1.3,2-2.9,3.2-4.7c-3.2-2-5.3-0.1-7.4,1.2c-3.1,1.9-5.9,4.3-9.1,6.1c-7.2,4-13.1,3.8-17.5-0.1
	c-4.4-4-6.3-13.7-3.3-19.7c2.1-4.2,4.7-8.2,7.7-11.7c8.6-9.9,13.4-21.8,17.6-33.8c4.3-12,3.1-24.7,2.2-37.3
	c-0.7-9.6-1.8-19.3-1.1-28.8c1.1-14.7,21.4-25.6,34.7-19.4c1.2,0.5,2.4,1.3,3.1,2.3c6.6,8.5,12.5,17.4,12.7,28.8
	c0.2,13.6,0.5,27.2,0.6,40.7c0.1,6.8,2.1,12.2,9.2,14.8c6.6,2.4,11.3,0.7,13.8-5.9c1-2.6,1.2-5.6,1.4-8.4c0.2-5-0.2-9.9,0.2-14.9
	c0.8-10.1,6.5-15.7,16.5-16.5c19.3-1.6,29.9,12.1,23.6,30.5c-0.3,1-0.7,2-1,3c-2.2,7.1-0.6,12.1,4.4,14c5.4,2.1,13.1-0.4,15.6-5.7
	c3.7-7.7,4-16.1,3.5-24.6c-0.3-5.4-4.1-8.8-7.1-12.7c-3.9-5.2-8.3-10.2-11-16c-4.3-9.2-2.1-15.7,6-22c4.3-3.3,9-6.3,13.6-9.3
	c4-2.7,6-6.4,6.2-11.1c0.2-5.6-1.8-8.7-7.2-10.8c-10.9-4.3-17.3-1.2-20.8,10c-1.6,5.2-3,10.5-4.8,15.7c-2.9,8.5-7.8,15.2-16.3,19
	c-9.4,4.1-19.3,1.5-24.5-7.2c-4-6.7-6.9-14-7.9-21.9c-1.1-8.3,1.1-15.6,6.8-21.6c3.4-3.6,7.1-7,11-10c5.8-4.4,9.4-9.7,9.9-17
	c0.7-9.6,1.1-19.3,2-28.9c1.1-12,8-19.7,19.2-23.1c14.3-4.3,24.1,5.6,25,17.9c0.4,5.3,0.6,10.6,4.5,14.6c1.9,1.9,4.5,3.6,7.1,4.2
	c8.1,2,15.9,1,23.5-3c11.4-5.9,21.7-3.1,28.4,7.8c4.6,7.5,9.3,15.3,12.3,23.6c5.4,15.1,1.8,27.5-10.8,34.7c-2.2,1.3-4.9,1.7-7.2,2.9
	c-4.7,2.6-9.8,5.1-13.8,8.6c-4.5,3.9-3.4,8,2.2,10c3.7,1.3,7.6,2,11.3,3c8.3,2.3,16.6,4.4,24.8,7.2c12.9,4.4,19.8,14.2,19.9,27.9
	c0.1,5.7,0.6,11.4-2.5,16.8c-6.7,11.3-21.9,16.9-34.8,12.4c-5.7-2-11.2-4.2-16.8-6.4c-5.4-2.2-9.8-0.3-11.6,5.2
	c-1.5,4.4-3.2,8.8-4.3,13.4c-0.5,2-0.4,5.2,0.8,6.4c9.1,8.9,7.2,19.4,4.9,30.1c-0.5,2.4-1.4,4.8-2.7,8.9c3.5-1.4,5.7-2,7.5-3
	c3.7-2,7.2-4.3,10.8-6.3c7.3-3.9,14.9-2.9,21,2.6c1.7,1.6,3.1,3.7,5.1,4.9c2.6,1.6,5.4,3,8.3,3.8c2.5,0.7,5.2,0.5,6.8-2.4
	c1.4-2.7-0.6-4.1-1.9-6.1c-3-4.5-6.4-9.2-7.9-14.2c-4.7-15.8,6.8-28.7,17.5-31.5c20-5.3,31.3-0.4,35.7,20.8c1.5,7.2,0.2,15,0,22.5
	c-0.1,3.1-1.2,6.2-1.2,9.3c0,4.6,2.6,6.2,6.7,3.9c2.2-1.2,4.1-3.2,5.5-5.3c5.4-8.1,8.8-16.8,10.1-26.8c2.4-19.2,6.1-38.2,9.2-57.2
	c0.2-1.3,0.5-2.6,0.7-3.9c0.4-2.6,0-4.7-2.7-5.7c-2.8-1-5.1-0.5-6.7,2.2c-1.3,2.2-2.8,4.4-4,6.7c-3.9,7.1-9,12.2-17.9,11.4
	c-9-0.8-14.8-5.8-18.5-13.7c-1-2.1-2-4.4-2.2-6.7c-0.9-8.8-5.6-15.7-10.9-22.1c-11.4-13.5-8.4-27.4-0.2-40.5
	c6-9.6,19.9-8.7,26.3,1.2c4.5,6.9,9.6,12.9,16.9,17c6,3.3,9.8,2.4,12.8-3.6c2.9-5.8,3.5-12.1,0.3-18.1c-3-5.5-6-11-9.4-16.3
	c-6.4-9.7-9.4-20.2-10.1-31.7c-0.2-4.1-1.2-8.3-2.6-12.1c-3.4-9-5-9.7-16.6-8.3c-0.4,3.3-0.8,6.8-1.1,10.3
	c-0.6,6.2-0.7,12.5-1.7,18.7c-1.6,10.6-5,14.3-13.4,15.9c-9.5,1.8-17.7-1.4-21.9-9.6c-3.1-5.9-4.9-12.6-7.1-19
	c-1.2-3.4-1.7-7.1-3.1-10.5c-2.7-6.7-6.8-10.7-14.8-11.9c-16.4-2.6-28.9-22.4-25.6-38.6c1.4-6.8,6.6-10.6,11.7-14.1
	c9.9-6.9,21.1-10.3,33.2-10.2c4,0,8.3,1.3,11.8,3.1c9,4.7,17.6,10.1,26.4,15.2c0.9,0.5,1.9,1.4,2.8,1.3c2-0.3,4.6-0.5,5.5-1.8
	c0.9-1.2,0.7-4.1-0.2-5.6c-1.3-2.2-3.5-3.8-5.4-5.6c-4.6-4.3-9.1-8.6-13.9-12.7c-8.8-7.4-11.8-18.3-17.2-27.8
	c-1.8-3.2-3.4-6.4-5.4-9.5c-4.9-7.7-13.7-11-22.4-8.6c-4.5,1.3-6.8,3.6-7,8.3c-0.2,3.9,0.4,7.8,0.8,11.7c0.4,4.1,1.3,8.3,1.4,12.4
	c0.1,9.4-5.9,15.8-15.1,18c-6.5,1.5-12.8,4-19.2,6.2c-4,1.4-5.5,4.6-5.5,8.6c-0.1,4.2,0,8.4-0.2,12.5c-0.4,7.4-2.1,14.5-9.9,17.2
	c-9.6,3.3-17.8,3.3-24.5-4.4c-6-6.9-12.2-13.7-17.9-20.7c-10.1-12.3-21.2-11.5-29.1,2.3c-6.3,11.1-5,19.8,4.6,28.6
	c4.1,3.7,6.2,8.2,6.9,13.6c1.3,10.7-0.8,20.3-9.5,27.5c-1.8,1.5-3.3,3.3-5.1,4.9c-3.7,3.3-5.3,7.4-6.1,12.3
	c-0.9,5.1-1.8,10.4-4.2,14.9c-3.9,7.4-10.5,11.3-19.3,10.8c-8.4-0.5-13.4-5.3-16.7-12.3c-5.7-11.9-4.9-24.4-2.4-36.8
	c1.9-9.2,4.3-18.3,6.6-27.4c1.2-5-0.5-9.5-3.5-13.1c-1.4-1.6-4.6-2.7-6.8-2.4c-1.4,0.2-3.2,3.4-3.2,5.4c-0.1,5.2,0.1,10.5,1,15.6
	c1.9,11.3-1.4,20.5-9.9,28.1c-8.6,7.7-20.1,6.8-26.4-2.8c-3.4-5.2-6.2-11-8.1-16.9c-4.4-13.2-9.7-25.9-18.7-36.7
	c-1.6-2-3.3-4.2-5.5-5.5c-7.1-4.4-14.2-8.7-21.6-12.5c-5.5-2.8-11.4-4.9-17.4-6.8c-12.7-4-25.4-7.9-38.2-11.4
	c-8-2.2-16.3-3.3-24.5-5.2c-4.6-1-8.9-3-13.5-3.8c-11.2-2.1-22.6-3.8-33.9-5.8c-5.9-1-11.7-2.4-17.5-3.3
	c-12.9-2.1-25.8-4.1-38.7-5.9c-5.4-0.7-10.1-2.7-14-6.3c-6.6-6.2-7.3-15.4-1.9-22.7c5-6.8,11.3-11.1,20.1-12
	c12.7-1.4,25.3-3.6,37.9-5.4c0.3,0,0.5-0.2,0.8-0.2c17.6,0.7,34.5-4.9,52-4.7c4.6,0,9.5,0.6,13.8,2.1c6.9,2.5,13.3,1.7,19.9-0.3
	c7-2.1,14-4.4,21.2-5.5c9.6-1.5,16.5,2.5,20,10.1c4.4,9.6,3.3,19.2-3.7,25.2c-3.4,2.9-8.2,4.2-12.5,5.9c-3.5,1.4-7.8,0.8-10.4,4.3
	c0.9,3.2,2.9,2.9,5,2.2c6-1.9,12.3-3.2,17.8-5.9c16.2-8,31.3-3.9,45.5,4.2c7.2,4.1,12.8,10.5,15.4,19.1c3,9.8,8.7,17.8,17.7,23.1
	c7,4.1,10.4,2.5,10.3-5.6c0-5.9-1.3-11.9-2.9-17.6c-3.1-11.2-3.4-22,1.8-32.8c5.4-11.1,16.3-13.4,24.1-12.4
	c5.9,0.7,10.2,4.5,11.8,10.1c1.8,6.2,3.3,12.6,3.9,19c0.8,7.8,8,12.3,14.9,8.1c6.3-3.8,10.6-9.7,10.9-17.2
	c0.3-7.2,0.1-14.8-1.6-21.7c-3.4-13.8,7.7-25.9,16-29.2c7.8-3,16.1-0.8,23.5,2.6c6.3,2.9,8.3,9.2,8.8,15.7
	c0.7,8.6,1.7,17.2,1.4,25.7c-0.4,12.5,6.1,20.6,18.5,21.2c2.6,0.1,5.2,0,7.5,0c0.9-1.4,1.6-2.3,1.9-3.2c0.7-2.2,1.3-4.5,2.1-7.6
	c-2.7-0.9-5-1.7-7.4-2.4c-10.7-3-18.3-13.8-17.4-24.9c0.4-5.4,2.7-9.7,8.2-11.1c4.8-1.2,9.7-1.8,14.6-2.2c5.4-0.5,10.9-0.6,16.1-0.9
	c1.8-7.2,1.7-8.3-3.1-11c-3.6-2-7.5-3.4-11.3-5.1c-1.2-0.5-2.6-0.7-3.6-1.4c-10-7.6-21.9-7.6-33.6-7.9c-4.7-0.1-9.4,0-14.1,0
	c-3.9,0-7.2,1.3-10.9,2.7c-13.3,5-27.1,9.1-40.9,12.6c-8.7,2.2-15.1-3.9-17.8-11.9c-3.5-10.8-4.1-22,0.6-32.9
	c0.7-1.7,1.3-3.4,2.1-5.1c3.1-7.1,3.2-13.5-3.2-19.2c-7.5-6.7-7.4-15.8-6.3-24.7c0.4-2.9,2.2-6.1,4.2-8.1c5.3-5.2,11.6-8.7,19-10.2
	c13.3-2.8,25.1,10.2,24.9,21c-0.2,8.3-0.8,16.7-2.2,24.8c-1.3,7.4,2,13.2,4.6,19.4c0.6,1.5,3.2,2.9,5,3c3.8,0.2,7.8-0.1,11.6-0.9
	c1.7-0.4,3.9-2.4,4.1-3.9c0.2-1.4-1.7-3.6-3.2-4.6c-9.7-6.5-13.5-15.3-8.7-23.8c2.6-4.5,7.1-8.3,11.4-11.4c3.7-2.7,8.3-4.3,12.6-6.1
	c12.9-5.4,16.4-14.1,10.6-26.9c-0.4-0.9-0.9-2-1.6-2.7c-8-8-10.4-17.9-9.6-28.7c0.4-5.7,1.1-11.4,2.5-16.9c1.7-6.5,7.7-8.4,13.3-9.5
	c7.4-1.5,14.6-0.4,20.6,4.7c1.5,1.3,3,3,3.6,4.8c2.9,7.8,5.6,15.7,8.4,23.6c2.6,7.7,6.6,9.2,12.5,4.2c10.1-8.6,19.6-17.9,24.9-30.6
	c1.5-3.5,3.9-6.8,6.3-9.8c7.7-10,8.5-20.4,1.9-31.2c-2.4-4-5.2-7.8-8.1-11.5c-6.8-8.8-10.5-18.6-9.2-29.9
	c1.3-11,11.4-18.9,22.2-17.2c3.7,0.6,7,1.8,9.4,5c1.5,2.1,3.5,3.9,5.2,5.8c5.3,5.6,12.4,5,16-1.9c2.5-4.8,4.8-10.1,5.6-15.4
	c3.5-23.7,8.7-47.2,9.1-71.3c0-2.3,0.6-4.6,0.9-6.9c1.4-8.7,3.3-17.4-0.7-26.1c-1.5-3.2-1-7.2-1.5-10.8c-0.3-2.4-0.6-5.4-3.7-4.9
	c-1.7,0.3-3.7,2.9-4.1,4.7c-1.4,6.6-2.6,13.4-3.2,20.1c-1,10.4-1.4,20.8-2,31.3c-0.2,2.9,0,5.8-0.5,8.6c-0.7,4.3-3.9,6.8-7.5,6.4
	c-3.5-0.4-6-2.8-6.1-7c-0.2-6.3-0.3-12.6,0.3-18.8c1.3-13.8,2.9-27.5,4.6-41.3c0.4-3,1.5-6.1,2.8-8.9c3.4-7.3,10.8-11.7,17.5-10.9
	c6.9,0.9,14,6.6,15.1,14.1c2.3,15.3,7,30.3,3.1,46.4c-2.8,11.5-2.4,23.9-3.8,35.8c-1.7,14-3.1,28-5.9,41.7
	c-1.5,7.5-5.1,14.8-8.7,21.7c-6.6,12.2-27,16.9-37.9,3c-1-1.2-1.8-2.7-3.1-3.5c-1.6-1.1-4-2.8-5.1-2.3c-1.7,0.8-3.5,3.2-3.8,5.2
	c-1.2,6.6,1.8,12.2,5.3,17.5c1,1.5,2.5,2.7,3.6,4.1c8.9,11,14,23.3,12.2,37.6c-0.6,4.5-2.6,9-4.7,13c-3.7,7.1-7.7,14.2-12.1,20.9
	c-6.6,10-14,19.5-24.1,26.5c-2.3,1.6-4.5,3.5-6.8,5.3c-9.6,7.3-25.5,2-28.3-8.9c-2.1-8-5.2-15.8-8-23.6c-1-2.8-2.6-5.1-6-5.5
	c-4.1-0.4-7.3,2.4-7.6,7.1c-0.5,9.3,0.8,18.2,6.7,25.9c9.2,12.2,8.2,25.1,2.6,38.4c-3.1,7.3-9.7,10.7-16.3,13.8
	c-3.5,1.7-7.3,2.8-11,4.1c-3.7,1.2-6.9,3.2-7,7.4c-0.1,4.3,3,6.2,6.8,7.5c8.3,2.9,9,4.7,9,14c0,5.7-5,10.6-10.9,11.5
	c-8.2,1.3-16.6,1.6-24.9,2.4c-7.7,0.7-12.1-3.3-15.3-9.8c-4.9-10-5.9-20.4-3.9-31.3c0.8-4.6,1.3-9.3,1.2-14c-0.2-8.6-6.4-12-13.9-8
	c-8.3,4.5-10.3,11.7-3.4,18.3c11.1,10.7,9.5,22.4,4.7,34.5c-2.9,7.3-4,14.6-2.9,22.2c1,7.2,2.8,8.2,9.8,6.6
	c10.5-2.3,20.2-6.6,30-10.9c3.3-1.4,6.9-3,10.4-3.1c16.2-0.6,32.4-1.2,48.3,2.7c1.3,0.3,2.6,0.6,3.7,1.2c8.6,4.2,17.4,8.1,25.8,12.8
	c10.1,5.6,13.7,19.2,8.3,29.4c-2.3,4.3-5.7,6.6-10.6,6.8c-6,0.2-12,0.4-18,0.8c-3,0.2-6.1,0.7-9.4,1.1c1.3,6,3.6,10,9.5,10.7
	c5,0.6,9.3,2.7,11.9,6.8c1.9,3.1,3.4,7.3,3,10.8c-0.5,5.1-2.8,10-4.5,14.9c-1.5,4.4-4.9,6.9-9.5,7c-7,0-14.2,0.3-21-0.9
	c-11-2-21.8-15.9-22.2-27.5c-0.2-4.7,0.5-9.4,0.4-14.1c-0.2-4.7-0.5-9.4-1.4-14c-1.4-7.4-1.7-7.3-9-8.4c-7.1-1-12.8,5.1-12,12.3
	c0.9,8,1.4,16.1,2,24.1c0.9,11.3-10.1,29.2-25.8,34.1c-3,0.9-6.8,0.5-9.9-0.3c-3.2-0.8-6.1-2.9-9.1-4.5c-6.5-3.3-9.6-8.6-9.1-15.9
	c0.3-6.3-0.7-12.4-3.7-18.2c-5-1-7.9,1-10.1,5.4c-3.5,7.2-2.3,14.1-0.3,21.3c1.5,5.2,2.6,10.6,3.3,16c0.4,3.6,0.2,7.3-0.5,10.9
	c-2.8,15.5-15.7,21.4-29.3,13.6c-12.1-6.9-20.2-17.1-25.1-30c-5.9-15.5-23.4-23.5-39.1-17.9c-8.3,3-16.7,5.9-25.2,8.3
	c-7.1,2-14.4-1.1-18.5-7.1c-4.8-7-3.4-16.8,3.9-21.4c3.9-2.5,8.6-3.6,13-5.2c2.2-0.8,4.7-1,6.7-2c3.4-1.7,3.6-4.8,2.8-8.1
	c-0.9-3.4-3.3-4.8-6.5-4c-5.8,1.4-11.6,3-17.3,4.7c-9.9,2.9-19.5,4.4-29.8,0.5c-8.6-3.3-18-1.7-27.1,0.3c-4.8,1.1-9.8,2.3-14.6,2.2
	c-15.5-0.3-30.6,2.8-45.9,5.1c-3.3,0.5-6.7,0.9-10,1.5c-2,0.4-4.5,0.3-6,1.5c-2.1,1.7-4.4,4.2-4.7,6.6c-0.3,3.3,3.1,4.3,6.1,4.7
	c2.8,0.4,5.7,0.8,8.5,1.1c13.2,1.3,26.3,3.4,39.1,7.2c6.4,1.9,13.5,1.4,20.1,2.6c10,1.8,19.8,4.2,29.7,6.4
	c6.9,1.6,13.6,3.8,20.6,4.9c12.7,2,25,5,36.9,9.9c3.1,1.3,6.5,1.8,9.8,2.5c14.2,3.2,26.3,10.7,38.9,17.8c15.4,8.7,23.9,22,30.5,37.3
	c3.4,7.9,6.2,16,9.3,24c2.3,5.8,4,7.2,8.2,6.4c4.3-0.8,6.6-3.8,6.6-9.2c0-2.9-0.6-5.7-0.7-8.6c-0.3-5.7-1.1-11.5-0.7-17.2
	c0.4-7.8,3.9-14.7,11.5-17.3c7.7-2.7,15.7-1.2,21.8,4.9c7,7.1,10.5,15.7,8.4,25.7c-1.9,9.2-4.1,18.3-6.6,27.4c-2.2,8-2.2,16-1,24.1
	c0.2,1.5,0.3,3.5,1.3,4.4c1.9,1.9,4.3,4.6,6.5,4.6c2.2,0,4.9-2.5,6.3-4.7c1.3-2,1.4-5,1.6-7.5c0.7-8.4,3.7-15.7,10.2-21.3
	c2.4-2,4.6-4.3,6.7-6.6c5.6-6,5.5-13.9-0.1-20.2c-1-1.2-1.9-2.5-3.1-3.5c-8.6-7.7-10-17.6-7.9-28c1.9-9.4,6.6-17.4,14-23.9
	c9.6-8.4,26.3-12.1,38.6,1.4c5.6,6.2,11.1,12.5,16.6,18.7c1,1.2,1.9,2.5,2.9,3.7c2.4,3,5,5.5,9.3,4.2c4.6-1.4,3.1-5.4,3.5-8.6
	c0.1-0.8,0-1.6,0-2.4c-0.4-20,4.3-24.5,24.1-32.3c3.6-1.4,7.6-1.9,11.4-2.7c3.5-0.7,4.8-2.8,4.6-6.1c-0.2-2.3-0.7-4.6-0.9-7
	c-0.5-4.9-1.7-9.9-1.4-14.7c1-16.3,6.6-19.7,20.8-22.8c6.7-1.4,13.5-0.2,20,2.2c5,1.9,9.4,4.7,12.1,9.4c4,6.8,8.6,13.3,11.4,20.5
	c4.4,11.2,12.8,18.8,21.1,26.7c3.6,3.4,7.4,6.6,10.7,10.3c6,6.7,6.4,17.6,1.2,23.8c-6.2,7.4-18.4,9.4-26.4,4.5
	c-8.2-5-16.4-10.1-24.9-14.6c-3.3-1.7-7.5-2.8-11.1-2.4c-7.8,0.9-15.3,3-21.7,8.1c-5.5,4.4-7,8.3-4.1,14.8c2.7,6,7.3,11.1,13.7,11.9
	c17.5,2.2,23.3,14.8,27.6,29.1c1.6,5.5,3.2,11,5,16.4c0.5,1.4,1.4,2.8,2.5,3.9c3.2,3.1,7.4,2,8-2.4c1-6.9,1.3-14,1.7-21
	c0.3-5.3,1.2-10.3,4.4-14.8c3.1-4.3,6.9-6.6,12.6-6.4c17.3,0.6,22.3,3.7,28.5,20.1c1.6,4.3,2.7,9.1,2.8,13.6
	c0.3,9.7,2.9,18.4,8.3,26.5c3.6,5.4,6.8,11.1,10,16.9c7,12.7,2.7,32.4-8.6,40.4c-7,5-14.2,5.1-21.5,1.5
	c-8.6-4.2-15.5-10.5-21.5-17.9c-1.5-1.9-3.3-3.6-5-5.6c-6.6,8-7.1,15.6-1.8,22.5c6.7,8.8,13.1,17.7,14.3,29.1
	c0.1,1.3,0.7,2.5,1.3,3.7c3.2,5.7,7.8,5.8,11.3,0.3c2.1-3.3,4.1-6.7,6.4-9.8c5-6.5,12.1-8.1,21-5.3c7.7,2.5,13.1,8.9,12.6,16.9
	c-0.7,11.4-2.1,22.8-3.8,34.2c-1.8,11.3-4.9,22.4-6.6,33.8c-1.8,12-6.9,22.4-13.4,32.2c-4.4,6.6-10.8,9.8-18.4,10.4
	c-9.7,0.9-18.2-6.5-18.3-16.1c-0.1-5.2,1.3-10.3,1.5-15.5c0.2-6.2,0.6-12.5-0.5-18.5c-1.4-7.4-3.6-8.7-9.8-9
	c-6.9-0.4-12.8,2.6-14.8,8c-2.4,6.4,0,11.9,4.7,16.3c6,5.5,6.7,12.1,4.9,19.4c-2,8.2-7.9,12.5-16.4,12.6c-9.7,0.1-17.8-2.8-24.7-9.9
	c-4.6-4.7-5.1-4.6-10.8-1.6c-3.5,1.8-6.7,4.2-10.3,5.7c-3.3,1.4-6.9,2.6-10.4,2.6c-11.4,0-17.6-8.8-14.1-19.7c1.7-5.2,4-10.3,3-15.9
	c-0.4-2.4-1.2-5.2-2.9-6.7c-5.8-5.1-6-11.4-4.4-18c1.5-6.1,3.6-12,5.6-17.9c4.1-11.8,17.9-17.4,29.4-12.3c5.2,2.3,10.7,4.2,16,6.3
	c4.8,1.9,9.4,0.5,13.7-1.2c1.9-0.8,4.2-3,4.6-5c2.1-10.2,2.3-20.2-10.3-24.3c-8.7-2.8-17.5-5-26.3-7.5c-4-1.1-8.2-1.9-12-3.5
	c-13.7-5.9-15.6-23.4-3.7-33.6c5.3-4.6,11.1-8.7,18.1-10.6c10.1-2.6,13.7-10.3,9-20.8c-2.9-6.7-6.6-13-10.4-19.2
	c-2.9-4.8-6.2-5.6-11.3-2.7c-10.7,6.3-22,5.8-33.5,3.6c-10.1-2-15.4-9.3-18.6-18.3c-1.4-3.9-1.6-8.2-2.2-12.3c-1-6.3-4.1-8-9.9-5.2
	c-3.6,1.7-5.7,4.7-6.1,8.5c-0.6,4.7-0.7,9.4-1,14c-0.5,6-1,11.9-1.5,17.9c-0.9,10.3-6.1,18.1-14,24.4c-2.9,2.3-5.6,4.6-8.4,7
	c-4.6,4-6.4,8.9-4.6,14.8c1.3,4.2,2.8,8.4,4.8,12.4c2,4.1,5.5,5.1,9,2.1c2.9-2.4,5.4-5.7,6.9-9.2c2.1-4.7,3-10,4.8-14.9
	c1.3-3.6,2.9-7.3,4.9-10.5c11.9-18.5,30.3-14.1,43.4-3.8c10.6,8.3,10.1,28.1-0.3,37.2c-4.5,4-9.7,7.1-14.6,10.5
	c-6.2,4.4-6.6,6.5-2,12.7c1.9,2.5,3.7,5.1,6,7.2c10.9,10,11.7,22.8,10.1,36.2c-0.5,4.4-1.6,8.8-3,13c-5.2,15.7-24.4,23.5-39.9,14
	c-6.8-4.1-9.6-11.7-9.5-19.7c0-3.8,1-7.8,2.3-11.4c1.6-4.2,2.6-8.2-0.7-11.7c-3-3.2-6.7-1.4-11-0.8c-0.2,3.5-0.4,6.8-0.6,10.1
	c-0.4,5.7-0.1,11.6-1.4,17.1c-2.9,12.6-12.5,19.3-25.2,18.7c-12.2-0.6-23.2-9.6-24.9-21.1c-0.8-5.1-0.7-10.4-0.9-15.6
	c-0.3-11-0.7-21.9-0.7-32.9c0-6.4-3.3-11.4-6.3-16.6c-1.6-2.7-4.2-2.9-6.9-2.5c-5.6,0.9-9.9,5.5-9.8,11.3c0.1,7.3,0.9,14.5,1.4,21.8
	c1.3,17.8,1.7,35.2-5.8,52.3c-5.2,11.8-10.9,23.1-19.4,32.9c-1,1.2-1.7,2.6-2.5,4c-0.3,0.6-0.4,1.4-0.7,2.7c3.8,0.5,5.8-2.5,8-4.1
	c5.3-3.8,11.1-5.7,17.6-5.3c8.1,0.4,13.2,5.6,12.9,13.7c-0.2,5-1.5,9.7-5.1,13.6c-6.8,7.2-13.5,14.6-20.2,21.8
	c-1.1,1.1-2.3,2.1-3.4,3.3c-1.9,2.2-2.7,4.6-0.7,7.1c2.2,2.8,5,2.4,7.7,0.5c12.3-8.8,22.6-19.4,28.9-33.3c1.6-3.5,1.9-7.5,2.6-11.4
	c1.7-10.2,5.4-18.9,14.7-24.7c8.1-5.1,16.5-5.9,25.5-3.1c1.5,0.5,3.1,0.8,4.4,1.6c7.9,4.9,16,4.7,24.7,2.2
	c7.2-2.1,14.6-1.6,21.3,2.1c13.1,7,16.3,23,7.5,36.7c-5.2,8.1-12.8,12.1-22.3,12.5c-5,0.2-9.9-0.1-14.9-0.1
	c-6.2,0-11.2,2.3-14.4,7.7c-4.4,7.5-10.5,12.5-18.9,15.3c-6.1,2-11.6,5.9-17.1,9.3c-10.1,6.4-12.6,18.1-3.5,29.7
	c12.7-0.1,21-6.5,25.7-17.9c3-7.5,7.8-13.2,14.8-17.7c10.7-6.8,29.1-7.2,38.6,4.5c1,1.2,2.2,2.2,3.4,3.2c5.3,4.7,12.3,3.2,14-3.6
	c1.3-5,1.2-10.3,1.2-15.5c0-5.9,0.8-11.4,3.6-16.6c3.2-6,8.1-9.5,14.9-10.1c3.6-0.3,7.3-0.3,11-0.2c12.3,0.4,19.3,8.1,21.6,19.9
	c0.5,2.5,0.2,5.2,0.4,7.8c0.7,7.5,4,9.9,11,7.4c6.2-2.2,11.6-5.6,16.3-10.5c7.3-7.7,15.5-13.8,26.9-14.4c19.7-1,32,14.4,33.4,31.2
	c0.4,5.4-0.7,10.9-0.9,16.4c-0.7,25.2-8.5,48.2-21.3,69.5c-12.5,20.8-28.6,38.5-47.3,53.9c-2.8,2.3-5.6,4.7-8.4,7.1
	c-6.4,5.8-13.4,10.7-21.6,13.9c-6.2,2.4-16.1,1.5-20-2.3c-3.5-3.5-5-13.5-1.9-19.3c2.4-4.5,5.8-8.6,9.2-12.6c1.6-1.9,4.2-3,6.4-4.5
	c-0.4-0.7-0.8-1.4-1.2-2.1c-1.6-0.4-3.1-0.9-4.7-1.1c-3.1-0.4-6.3-0.2-9.3-0.9c-8.5-2.2-12.5-8.9-10.4-17.3
	c2.2-8.4,6.5-15.4,14.2-19.8c2-1.1,4.2-2,6.5-2.4c8.4-1.7,16.9-3.1,25.3-4.7c4.9-1,6-2.5,6.3-7.4c0.7-11.6-4.4-20.5-12.6-28.3
	c-6-5.7-14.8-2.2-16.6,5c-1,4-1.5,8.2-2.2,12.3c-0.3,2.1-0.6,4.1-1,6.2c-1.7,8.5-6.9,15-13.4,15.5c-11.2,1-16.8-0.2-22.6-10
	c-1.8-3.1-3.1-6.7-5.1-9.7c-3.4-5-7.2-6-12-4.3c-3.5,1.2-5.4,3.5-5,7c0.4,3.3,1,6.8,2.7,9.5c5,7.9,10.5,15.6,15.9,23.3
	c11.3,16.1,3.8,25.3-10.6,33.1c-2.7,1.4-6,1.8-9,2.5c-6.4,1.4-11.6,4.5-15.2,10.2c-2.7,4.3-2.8,4.7-1,11.3c3.7,1.5,7.5,0.6,11.2-0.8
	c6.1-2.4,12-5.2,18.2-7.2c3.9-1.3,8.2-2.2,12.2-2c6.9,0.2,13.4,3.1,15.5,10c2.3,7.2,2.8,15.1-3.5,21.3c-2.4,2.4-5,4.6-7.8,6.5
	c-13.4,9.1-27.3,17.3-43,21.7c-13.2,3.7-24.5,11.4-36.6,17.6c-9.5,4.9-18.7,10.3-28.3,15c-3.7,1.8-7.9,2.9-12,3.2
	c-15.5,0.8-24.1-12.4-17.4-26.4c3.7-7.9,9-14.6,15.2-20.7c3.9-3.8,7.8-7.7,11.6-11.7c4.5-4.6,6.3-10.1,4.9-16.5
	c-2.6-11.3-5.9-13.6-17.8-10.7c-4,1-8.1,1.5-12.2,1.5c-6.6,0-11.2-3.5-14.3-9.3c-8.3-15.2-1.9-33.3,14.2-39.6
	c5.8-2.3,11.8-1.5,17.7-0.2c6.4,1.5,12.6,3.5,19.1,4.4c5.9,0.8,12,0.7,17.9,0.4c5.4-0.3,7.9-3.1,8-8.6c0.1-5.4,1.2-11-3.5-15.5
	c-6.4-6.1-12.9-6.6-22-1c-1.5,0.9-3,2.1-4.3,3.3c-7.7,7.1-16.9,7.4-26.5,6.1c-4.9-0.7-8.5-3.6-11.7-7.3c-4.3-4.9-8.6-9.8-13-14.6
	c-3.5-3.9-7.6-4.9-12-3.2c-3.3,1.2-5.9,5.5-5.3,10.4c0.5,4.6,1.8,9.2,3.2,13.6c2.2,6.8,3.4,13.7,2.6,20.8
	c-1.2,11.1-11.1,19.2-21.7,18c-8.3-0.9-13.4-5.7-15.6-13.4c-1.4-5-2.2-10.2-2.6-15.4c-0.4-6.4-3.2-10.4-9.4-11.7
	c-4.1-0.8-8.2-1.5-12.3-1.9c-5.7-0.5-11.5-0.4-17.2-1c-15.7-1.5-22.9-17.1-14.1-30.3c5-7.5,11.6-12,20.9-11.3
	c11.1,0.8,21.8-1.3,32.4-4.5c10.9-3.3,19.4-17.7,16.7-28.7c-0.9-3.6-3.5-6-7.3-5.5c-3.3,0.4-6.7,1.3-9.5,2.9
	c-4.5,2.5-8.8,5.7-12.9,8.8c-10.2,7.8-22.2,11.4-34.2,15c-12.4,3.8-24.9,5-37.9,4.7c-12.2-0.3-24.5,0.9-36.8,0.8
	c-14.9-0.1-29.7-1-44.6-1.3c-8.8-0.2-17.6,0-26.6,0c1.3,6.8,2.3,7.6,8,8.5c5.1,0.8,10.3,1.5,15.4,2.6c6.7,1.5,11.1,5.5,12.1,12.7
	c1.1,7.6-2.1,12.9-8.4,17.1c-7.2,4.8-14.6,4.7-22.5,3c-2.6-0.6-5.9-0.8-8.1,0.3c-6.5,3.1-7,13.2-1,18.5c4.4,3.8,9.3,6.1,15.7,5.7
	c12-0.8,22.2-4.6,30.8-13.3c4.2-4.2,9.3-7.6,14.4-10.8c5.4-3.4,11.3-5.2,17.8-4.9c8.6,0.3,17.3-0.2,25.8,0.4
	c13,1,25.2,3.8,33.1,16.1c2.6,4,7,7,10.7,10.2c2.9,2.6,5.8,1.3,8.6-0.4c10.8-6.6,18.6-6.4,28.5,1.5c2.5,2,4.8,5.1,5.7,8.2
	c3,11.2,3.2,22.2-4.1,32.2c-3.8,5.3-7.5,10.7-11.3,16c-0.7,1.1-1.6,2.1-2.2,3.2c-1.7,3.5-1.1,9.7,1.3,10.9c3.3,1.6,6.7,0.8,9.5-1.4
	c3.7-2.9,7.1-6.2,10.9-9c9.5-7,19.3-13.7,32-12.6c11.3,1,21.4,4.1,28.4,14.2c5.3,7.7,5.9,24-0.2,31.1c-6.5,7.7-14.1,13.9-25.4,13.2
	c-4.3-0.3-10.2-0.6-12.6,1.9c-4.2,4.3-7.9,10.4-8.7,16.1c-1.6,10.7-8,15.7-16.8,19.6c-16.5,7.3-33.8,8.4-51.4,6.8
	c-8.8-0.8-17.6-2.1-26.5-2.3c-15.8-0.5-18.9-10.5-14.8-22.3c3.1-9,9.4-15.6,19.9-16.6c2.8-0.3,5.7-0.9,8.4-1.8
	c6.4-2.3,7.4-8.4,1.9-12.6c-2-1.5-4.7-2.2-7.1-3.1c-8.3-3.1-11.8-7.8-11.6-15.7c0.2-8.6,4.5-13.9,13.1-16.3c2.3-0.6,4.6-0.9,6.9-1.5
	c5.9-1.8,9.2-6.7,8.4-12.4c-0.7-5.2-6.2-9.5-12.1-8.7c-4,0.6-8.4,1.9-11.4,4.3c-11.7,9.3-24.5,6-34.6-3.5c-10.4-9.9-13.8-9.8-22,1.7
	c-6.3,8.8-15.2,11.1-25.1,11.9c-3.2,0.3-6.6,1.4-9.5,3c-4,2.2-5.6,5.9-5,10.6c0.6,4.9,2.9,7.9,8,7.8c7.8-0.1,15.6-0.8,22.6-5.2
	c4.4-2.8,9.1-5.2,14-6.9c7.2-2.5,13.9-1.3,19.2,4.7c1.7,1.9,4.1,3.4,5.5,5.5c2.4,3.6,5.2,7.5,6,11.6c1.6,8.8,1.3,17.7-3.8,25.8
	c-2.2,3.5-3.7,7.5-5.9,11c-5.2,8.4-12.7,12.9-22.7,12.9c-6.5,0-12.9,0.1-19.2-2.9c-3.9-1.9-8-1.6-11.3,2.3c-3,3.5-6.8,6.5-10,9.8
	c-5.7,5.8-12.4,9.5-20.6,10.1c-12,0.9-24,1.5-35.9,2.2c-7.8,0.4-15.7,0.6-23.5,1.1c-8.4,0.5-13.8-1.9-15.9-7.3
	c-2.3-6,0.3-12.8,6.7-17.8c2.2-1.7,4.6-3.4,7.1-5.2c-1.9-5-6-6.8-10-8.6c-9.7-4.4-14-11.7-13.7-22.4c0.2-8.3,5.3-13.1,11.6-16.4
	c6.6-3.4,13.6-3.1,19.9,1.9c4.5,3.6,9.2,6.8,14,10c1.9,1.3,4.2,2.2,6.4,2.6c5.2,0.9,8.5-1.9,9.1-7.1c1.1-8.9-3-15-11.6-17.6
	c-12.2-3.7-16.5-13-11.4-24.9c2.9-6.7,5.9-13.4,8.8-20.1c0.8-1.9,1.7-3.8,2.1-5.9c1.3-7.3,0.2-9.7-6.6-13.2
	c-5.3-2.8-10.8-5.3-16.3-7.7c-13.9-5.9-16.7-16.7-14.7-28.7c1.3-7.8,7.3-11.7,14.7-13.4c4.1-0.9,8.2-1.4,12.3-2.3
	c4.9-1,8.5-4,10.4-8.6c1.8-4.4,0.2-7.3-4.5-7.8c-7-0.8-14-1.3-21.1-1.4c-4.7,0-9.3,1.1-14,1.5c-8,0.7-13.2,5.2-17.5,11.7
	c-4.6,6.9-9.5,13.7-15.1,20c-7.4,8.4-17.1,12.6-28.4,12.8c-4.7,0.1-9.4,0.7-14.1,0.6c-13.4-0.3-25.8-14-24.7-27.3
	c0.1-1.7,0.6-3.7,1.6-5.1c5.6-8.2,12.7-14.4,23-16.3c3.4-0.6,6.6-2.3,9.4-3.3c0.4-4.3-1.8-5.8-4.1-5.9c-9.9-0.8-19.7-1.6-29.6-1.5
	c-2.7,0-5.4,2.8-8,4.6c-6.6,4.8-13.5,7.1-21.9,6.6c-9.2-0.6-15.3-5.3-18.8-13.1c-1.9-4.2-3-9-3.1-13.6c-0.3-11.2,0.2-22.5,0.3-33.7
	c0.1-10.9,0-21.9,0-32.8c0-9.6,0.2-19.3,0.2-28.9c0-2.7-0.4-5.3-0.7-8.4c-5.2,1.7-6.5,5-7.2,8.7c-0.5,2.6-0.6,5.2-1,7.8
	c-0.5,2.8-0.8,5.8-1.8,8.4c-5.2,13.3-16.3,15.1-25.2,4.1c-2.9-3.6-4.8-8-7-12.1c-0.5-0.9-0.6-2-1-2.9c-2.2-4.4-6.7-7-10-5.9
	c-2.9,1-4.2,5.1-2.8,10.4c1.2,4.5,2.2,9.3,4.4,13.4c6.9,12.2,10.4,26.3,19.8,37.2c4.1,4.7,5.8,10.4,5.2,16.8
	c-0.3,3.4,0.1,6.8-0.3,10.2c-1.4,14.1,2.6,27,9.3,39c5.9,10.5,13.4,20,23.6,26.8c4,2.7,8.9,4.4,13.6,5.6
	c22.3,5.4,23.8,22.2,20.5,38.9c-0.5,2.5-2.9,4.9-4.9,6.9c-4.1,4-8.7,7.6-12.8,11.5c-5.4,5.2-5.8,12.4,0,17.1
	c5.6,4.6,12,8.3,18.3,11.9c3.1,1.8,8.3-0.7,10.5-4.7c4.3-7.7,8.5-15.5,12.5-23.4c10.2-19.8,26.1-30.7,48.7-31
	c9.6-0.1,17.5,4.2,22.6,12c6.4,9.7,10.1,20.8,8.9,32.6c-1,10-5.9,18.4-14,24.4c-5,3.7-10.5,6.8-15.9,9.9
	c-8.8,4.9-10.4,18.6-2.8,25.2c2.4,2,4.9,3.9,7.6,5.6c7.5,4.6,13.2,10.7,17.1,18.6c5.7,11.5,1.6,22.8-10.3,27.5
	c-3.6,1.4-7.6,2.4-11.4,2.5c-18.3,0.1-36.6,0.8-54.7-2.5c-15.6-2.8-22.9-15.5-16.9-30.2c0.3-0.7,0.6-1.5,1.1-2.1
	c4.6-6.2,1.6-10.8-5.4-14.1c-7.8-3.7-14.5-1.1-19.5,6.1c-5.1,7.4-8,15.8-11.1,24.1c-4.3,11.3-12.1,15.6-24.4,15.3
	c-22.1-0.6-44.2-0.8-66.3-1c-15.9-0.1-31.8,0-47.7,0c-7,0-14,0.4-21,0.3c-3.8-0.1-7.8-0.3-11.5-1.4c-8.6-2.4-12.3-7.8-12.7-16.6
	c-0.4-11.5-1-22.9-1.5-34.4c-0.5-9.8,3.2-17.7,10.8-24c6.5-5.3,13-6.7,20.2-2.3c4.5,2.8,8.2,7.1,11.9,11.1c1.8,1.9,2.9,4.3,4.1,6.6
	c1.8,3.5,4.5,4.9,8.3,4.5c1.3-0.1,2.6,0,3.9,0c8.6-0.2,11.9-3.2,10.9-11.3c-0.1-0.5,0-1,0-1.6c-1.7-17.3,12.7-24.1,27.2-17.7
	c7.7,3.4,14.6,8.2,20.2,14.5c7.5,8.5,14.8,8,23.6,2.6c2.8-1.8,4.3-4.1,4.5-7.7c0.2-5.4-0.7-10.5-3.5-15.1
	c-5.7-9.3-4.3-18.5-0.3-27.7c1.2-2.9,2.2-6,3.9-8.5c6.9-10,4.8-19.4-1.8-28.3c-4-5.3-7.8-10.3-9.5-16.9c-1-3.9-5.5-4.8-7.9-1.5
	c-1.6,2.1-2.2,5.2-2.4,7.9c-0.5,6.5,0.2,13.1-0.7,19.5c-1,6.3-3.1,12.6-5.3,18.7c-2.3,6.4-6.9,10.9-13.1,13.9
	c-2.3,1.1-4.6,2.5-6.8,3.9c-11.1,7.4-27.9,5.2-37.1-4.5c-4.6-4.8-6.6-10.4-4.5-16.5c1.9-5.6,4.8-10.9,7.9-16c2.4-4,6-7.2,8.7-11.1
	c1.6-2.3,3-5.1,3.3-7.8c1.1-10.7-5.7-16.4-16.1-13.6c-7.3,1.9-12.7,6.9-17.9,12.2c-4,4.1-8.2,8-12.9,11.3c-7.2,5-15.1,2.6-22.7,0.7
	c-4.3-1.1-8.4-2.9-12.6-4.2c-4.7-1.4-9.4-1.6-13.4,1.7c-2.9,2.3-5.5,5.1-4.1,9.3c1.3,4,4,6.8,8.4,7.2c2.8,0.3,5.7-0.2,8.6-0.1
	c5.4,0.3,10.9,0.5,16.3,1.3c7.1,1,11.7,5.3,14.3,11.9c3.2,8.1,3.2,16.5,0.3,24.5c-4.3,11.8-14.9,17.2-28,13.6
	c-6.6-1.8-11.3-0.3-16.9,2.9c-6,3.4-11.2,7.3-16,12.2c-9.2,9.5-24.3,8.7-32.5-1.5c-1.8-2.2-3.2-5.8-3-8.6c0.4-5.9,1.7-11.8,3-17.6
	c0.7-3.3,2.4-6.4,3.1-9.7c0.7-3.4-1-6.1-4.1-7.7c-3-1.6-6-0.6-7.8,1.6c-1.9,2.3-3.6,5.3-4,8.2c-2.7,21.3-3.3,42.7-2.3,64.1
	c0.4,8.8,8.2,12.1,15.8,7c2.5-1.7,4.5-4.3,6.8-6.5c8.9-8.9,19.2-12.3,31.4-8.4c11.1,3.5,17.7,12.2,17.6,23.9c0,5.2-0.1,10.5-1,15.6
	c-1.8,10-9.7,17.7-19.8,18.4c-13.7,0.9-27.4,3.2-41.4,1c-7.3-1.2-15.1,0.3-22.6,0.5c-6,0.2-12,0.7-18,0.3c-6.8-0.5-10-3.8-10.1-10.6
	c-0.1-15.7,0.6-31.3,0.5-47c0-14.9-0.8-29.8-0.8-44.6c0-18.5,0.5-37.1,0.7-55.6c0-2.1-0.1-4.1-0.1-6.2c-0.1-8.3-0.8-16.7-0.1-25
	c0.3-4.2,2.5-8.5,4.8-12.3c5.9-9.7,16.7-11.2,24.3-2.8c4.6,5.1,7.7,11.7,11.1,17.8c2,3.6,3.1,7.7,4.8,11.6c0.7,1.6,1.5,3.7,2.8,4.5
	c1.6,0.9,4.1,1.3,5.7,0.8c1.1-0.4,2.1-2.8,2.2-4.4c0.1-2.3-0.3-4.8-1.2-6.9c-4.3-10-8.7-20-13.4-29.9c-2.5-5.3-4.6-10.4-4.4-16.4
	c0.4-13.6,3.4-25.8,14.6-34.8c2.6-2.1,4.3-5.3,6.9-7.5c3.5-2.9,3.6-6.1,2.1-9.8c-1.6-3.9-6-6.9-10.1-5.7c-6,1.7-11.8,4-17.3,6.8
	c-5,2.5-9.8,4.9-15.5,4.6c-9.7-0.4-15.7-5.4-17.2-15c-0.6-4.1-0.6-8.3-0.5-12.5c0.3-18.8,1.1-37.6,1.1-56.4c0-10.7-1.6-21.4-1.2-32
	c0.5-13.3,2-26.5,3.8-39.7c1.4-10.5,8.4-15.8,18.4-15.3c10.5,0.4,18.7,7.8,19.6,17.7c0.3,3.9,0,7.8,0.2,11.8
	c0.4,7.8,4.7,11.1,12.2,10.2c3.3-0.4,6.8-0.4,10.1,0c7.1,0.9,11.9,5.2,14.2,11.9c2.4,6.8,1.2,13.2-4,18.1c-5.1,4.8-10.9,9-16.6,13
	c-9.9,7-12.2,14.6-7.9,25.7c1.3,3.3,3.4,4.2,6.7,4c3.3-0.2,6.2-0.7,7.1-4.6c0.7-3.1,1.2-6.2,2.2-9.1c3.3-9.6,10.2-14.5,20.3-13.8
	c4.9,0.3,9.8,1.3,14.6,2.6c7.4,2.1,10.8,7.8,11.7,15.1c1.1,9.2-1.5,17.5-6.3,25.4c-8.4,13.9-6,32.8,5.1,44.8c3,3.2,6,6.6,8.7,10.1
	c5.8,7.5,4.1,15.5,0.1,22.9c-3.8,7.1-10.7,8.6-18.2,7.8c-1.8-0.2-3.6-0.7-5.4-1c-7.5-1.5-12.7,4.2-10.2,11.4
	c0.7,2.1,2.1,4.4,3.8,5.8c17.3,15.3,36.4,11.5,49.7-1.8c3.5-3.5,5.2-9.6,6.3-14.8c1.7-7.9,5-14.8,9.2-21.4
	c7.1-11.2,18.3-14.8,30.5-9.9c8.1,3.3,14.1,8.8,17.6,17c0.5,1.2,0.8,2.6,1.5,3.6c2,2.9,3.9,7.8,6.4,8.1c4.9,0.7,10.4-0.4,15-2.4
	c2.4-1,4-5.4,4.6-8.5c1.2-6-0.1-12-3.2-17.4c-2.3-4.1-4.5-8.3-7.2-12.1c-9.2-13.5-14.8-28-14.4-44.6c0.1-3.6-0.4-7.3-1-10.9
	c-1.3-7.5-8.5-12.3-15.7-10.3c-1.5,0.4-3.1,2-3.7,3.4c-1.1,2.6-1.8,5.5-2.1,8.3c-1,9.1-1.7,18.2-2.5,27.3
	c-1,11.7-4.4,22.3-14.9,28.7c-8.2,4.9-17.2,4.9-25.3,0c-7.5-4.5-11.1-11.7-9.9-20.6c0.7-5.2,0.8-10.6,2.5-15.4
	c4.9-13.8,1.1-25.6-6.8-36.8c-14.4-20.6-12.9-19.5-4.9-42.3c2.1-6,7-9.6,11.9-13.2c15-11,35.4-11,50.1,0.3c4.9,3.8,9,8.6,13.4,13
	c4.3,4.2,6.7,4.9,11.5,1.5c2.7-1.8,5.1-4.5,6.6-7.4c2.4-4.9,3.9-10.2,5.9-15.3c2.1-5.6,3.8-11.5,6.5-16.8
	c8.8-17.5,35.3-20.9,48.1-6.4c6.7,7.6,5.6,18.4-2.4,24.7c-6.3,4.9-7.9,8.3-6.1,12.8c1.8,4.5,5.9,6.1,13.4,5.2
	c11.9-1.4,17.4-5.8,19.9-17.5c1.6-7.6,2-15.5,3.2-23.2c4-25.7,1.5-51.6,2.2-77.4c0.1-3.4-0.2-6.8-0.5-10.2
	C497.3,967.5,495.8,965.7,491.5,966.1z"/>
</svg>
