<?xml version="1.0" encoding="utf-8"?>
<!-- Generator: Adobe Illustrator 18.1.1, SVG Export Plug-In . SVG Version: 6.00 Build 0)  -->
<svg version="1.1" id="Layer_1" xmlns="http://www.w3.org/2000/svg" xmlns:xlink="http://www.w3.org/1999/xlink" x="0px" y="0px"
	 viewBox="0 0 512 512" enable-background="new 0 0 512 512" xml:space="preserve">
<g>
	<defs>
		<rect id="SVGID_1_" width="512" height="512"/>
	</defs>
	<clipPath id="SVGID_2_">
		<use xlink:href="#SVGID_1_"  overflow="visible"/>
	</clipPath>
	<circle clip-path="url(#SVGID_2_)" fill-rule="evenodd" clip-rule="evenodd" fill="#3366CC" cx="256" cy="256" r="256"/>
</g>
<g>
	<defs>
		<rect id="SVGID_3_" width="512" height="512"/>
	</defs>
	<clipPath id="SVGID_4_">
		<use xlink:href="#SVGID_3_"  overflow="visible"/>
	</clipPath>
	<path clip-path="url(#SVGID_4_)" fill-rule="evenodd" clip-rule="evenodd" fill="#FFFFFF" d="M439.5,92
		c-2.5,4.8-5.9,10.4-10.5,16.7c-14.2,19.3-35.2,38.5-64.1,56.2c-22.5,13.8-48.7,26-78.8,36.5c2,4.2,4,8.5,6,12.8
		c6,13,11.8,26,17.4,39.3c33.5-8.8,67.5-11.5,101.4-8.8c26.1,2,50.4,7.1,72.2,14.1c7,2.3,13.3,4.6,18.8,6.8
		c-0.3,7.3-0.9,14.6-1.8,21.8c-1.1-0.5-2.7-1.2-4.6-2c-5.4-2.3-11.7-4.6-18.7-6.9c-20.3-6.6-43-11.3-67.5-13.2
		c-30.8-2.4-61.5-0.1-91.8,7.5c25.4,62.6,46.6,128.1,62.3,196c-6.1,3.6-12.5,6.9-18.9,10c-15.7-69.4-37.2-136.3-63.3-200.2
		c-31.7,10.5-62.8,27.2-93,50.7c-36.9,28.8-71.3,67.3-103,116.5l-9.1-5.9c-2.5-2.2-4.9-4.5-7.3-6.8c32.6-50.4,68.3-90.2,106.7-120.1
		c31.7-24.7,64.4-42.3,97.8-53.6c-5.2-12.3-10.7-24.5-16.2-36.6c-2.3-5.1-4.7-10.1-7-15c-67,20.6-151.6,33.2-255.9,35.8l-0.1-2.8
		c0.4-6,0.9-12,1.7-17.9c100-2.7,181-14.7,245.1-33.9c-20.7-41.8-42.3-79.8-63.9-113.8c-9.5-15-18.4-28.1-26.3-39.3
		c-1.9-2.7-3.7-5.2-5.3-7.3c6.6-2.7,13.3-5.2,20.2-7.4c0.6,0.9,1.3,1.8,1.9,2.7c8.1,11.4,17.2,24.9,26.9,40.2
		c22.5,35.4,44.9,75,66.4,118.5c29.6-10.2,55.2-22.1,77-35.4c26.7-16.3,45.7-33.6,58.3-50.8c4.3-5.9,7.5-11.2,9.7-16
		c1-2.1,1.6-3.6,1.9-4.5C429.4,81.1,434.6,86.4,439.5,92z"/>
</g>
</svg>
