<?xml version="1.0" encoding="utf-8"?>
<!-- Generator: Adobe Illustrator 18.1.1, SVG Export Plug-In . SVG Version: 6.00 Build 0)  -->
<svg version="1.1" id="Layer_1" xmlns="http://www.w3.org/2000/svg" xmlns:xlink="http://www.w3.org/1999/xlink" x="0px" y="0px"
	 viewBox="0 0 200 200" enable-background="new 0 0 200 200" xml:space="preserve">
<g>
	<g>
		<defs>
			<rect id="SVGID_1_" width="200" height="200"/>
		</defs>
		<clipPath id="SVGID_2_">
			<use xlink:href="#SVGID_1_"  overflow="visible"/>
		</clipPath>
		<circle clip-path="url(#SVGID_2_)" fill="#1DB458" cx="100" cy="100" r="100"/>
	</g>
</g>
<g>
	<g>
		<defs>
			<rect id="SVGID_3_" width="200" height="200"/>
		</defs>
		<clipPath id="SVGID_4_">
			<use xlink:href="#SVGID_3_"  overflow="visible"/>
		</clipPath>
		<path clip-path="url(#SVGID_4_)" fill="#FFFFFF" d="M171.7,35.9c-1,1.9-2.3,4.1-4.1,6.5c-5.5,7.5-13.8,15-25,22
			c-8.8,5.4-19,10.2-30.8,14.3c0.8,1.6,1.6,3.3,2.3,5c2.3,5.1,4.6,10.2,6.8,15.4c13.1-3.4,26.4-4.5,39.6-3.4
			c10.2,0.8,19.7,2.8,28.2,5.5c2.7,0.9,5.2,1.8,7.3,2.7c-0.1,2.9-0.4,5.7-0.7,8.5c-0.4-0.2-1.1-0.5-1.8-0.8
			c-2.1-0.9-4.6-1.8-7.3-2.7c-7.9-2.6-16.8-4.4-26.4-5.2c-12-0.9-24,0-35.9,2.9c9.9,24.5,18.2,50,24.3,76.6
			c-2.4,1.4-4.9,2.7-7.4,3.9c-6.1-27.1-14.5-53.2-24.7-78.2c-12.4,4.1-24.5,10.6-36.3,19.8c-14.4,11.2-27.9,26.3-40.2,45.5l-3.6-2.3
			c-1-0.9-1.9-1.8-2.9-2.7C46,149.5,60,133.9,75,122.3c12.4-9.6,25.2-16.5,38.2-20.9c-2-4.8-4.2-9.6-6.3-14.3
			c-0.9-2-1.8-3.9-2.7-5.9c-26.2,8-59.2,13-100,14l0-1.1c0.2-2.3,0.4-4.7,0.7-7c39.1-1.1,70.7-5.7,95.7-13.2
			c-8.1-16.3-16.5-31.2-25-44.5c-3.7-5.9-7.2-11-10.3-15.4c-0.7-1.1-1.4-2-2.1-2.9c2.6-1.1,5.2-2,7.9-2.9c0.2,0.4,0.5,0.7,0.7,1.1
			c3.2,4.5,6.7,9.7,10.5,15.7c8.8,13.8,17.5,29.3,25.9,46.3c11.6-4,21.6-8.6,30.1-13.8c10.4-6.4,17.9-13.1,22.8-19.8
			c1.7-2.3,2.9-4.4,3.8-6.2c0.4-0.8,0.6-1.4,0.7-1.8C167.7,31.7,169.8,33.8,171.7,35.9z"/>
	</g>
</g>
</svg>
