<?xml version="1.0" encoding="utf-8"?>
<!-- Generator: Adobe Illustrator 18.1.1, SVG Export Plug-In . SVG Version: 6.00 Build 0)  -->
<svg version="1.1" xmlns="http://www.w3.org/2000/svg" xmlns:xlink="http://www.w3.org/1999/xlink" x="0px" y="0px"
	 viewBox="0 0 16 16" enable-background="new 0 0 16 16" xml:space="preserve">
<g id="Layer_1">
	<rect fill="#1DB458" width="16" height="16"/>
</g>
<g id="Layer_2">
	<g>
		<path fill="#FFFFFF" d="M4.8,15.5c-0.5,0-0.9,0-1.3,0c-0.5,0-0.9,0-1.2,0c0-0.4,0-0.7,0.1-0.9c0.3,0,0.5-0.1,0.7-0.1
			c0.2-0.1,0.4-0.2,0.5-0.3c0.1-0.2,0.2-0.4,0.3-0.6c0.1-0.3,0.1-0.6,0.1-1v-9c0-0.7-0.1-1.2-0.3-1.5C3.4,1.6,3,1.5,2.4,1.4
			c0-0.1-0.1-0.3-0.1-0.4s0-0.3,0-0.5c0.3,0,0.6,0,1.1,0.1c0.4,0,0.8,0,1.2,0 M4.9,0.6c0.5,0,1.1,0,1.6,0c0.5,0,1,0,1.6,0
			c0.6,0,1.2,0,1.8,0.1c0.6,0.1,1.1,0.3,1.5,0.5c0.4,0.2,0.8,0.6,1,1c0.2,0.4,0.4,0.9,0.4,1.6c0,1-0.3,1.8-0.9,2.4
			c-0.6,0.7-1.3,1.1-2.3,1.2c0.6,0,1.1,0.1,1.6,0.3c0.5,0.1,1,0.4,1.4,0.6c0.4,0.3,0.7,0.7,0.9,1.1c0.2,0.5,0.4,1,0.4,1.7
			c0,0.6-0.1,1.2-0.3,1.7c-0.2,0.5-0.5,1-0.9,1.4s-1,0.7-1.6,0.9c-0.7,0.2-1.5,0.3-2.4,0.3H7.1c-0.6,0-1.1,0-1.7,0
			c-0.1,0-0.2,0-0.3,0 M6.4,1.5c-0.1,0-0.2,0-0.3,0.1v5.6h0.7c0.7,0,1.3-0.1,1.7-0.2C9,6.8,9.3,6.6,9.6,6.3C9.8,6,10,5.7,10.1,5.4
			c0.1-0.3,0.1-0.7,0.1-1c0-0.6-0.1-1-0.3-1.4C9.7,2.6,9.5,2.3,9.2,2C8.8,1.8,8.5,1.7,8.1,1.6C7.7,1.5,7.3,1.4,7,1.4
			C6.8,1.4,6.6,1.5,6.4,1.5z M6.1,8.2v4.2c0,0.5,0,0.8,0.1,1.1c0.1,0.3,0.2,0.5,0.3,0.6c0.2,0.1,0.4,0.2,0.6,0.3
			c0.3,0.1,0.6,0.1,1,0.1c1.1,0,1.9-0.3,2.4-0.8s0.8-1.3,0.8-2.3c0-0.7-0.1-1.2-0.4-1.6c-0.3-0.4-0.7-0.8-1.1-1
			c-0.5-0.2-1-0.4-1.5-0.5C7.7,8.2,7.1,8.2,6.6,8.2H6.1z"/>
	</g>
	<line fill="none" x1="6" y1="0" x2="6" y2="16"/>
</g>
</svg>
