<?xml version="1.0" encoding="utf-8"?>
<!-- Generator: Adobe Illustrator 18.1.1, SVG Export Plug-In . SVG Version: 6.00 Build 0)  -->
<svg version="1.1" id="Layer_1" xmlns="http://www.w3.org/2000/svg" xmlns:xlink="http://www.w3.org/1999/xlink" x="0px" y="0px"
	 viewBox="0 0 200 200" enable-background="new 0 0 200 200" xml:space="preserve">
<g>
	<g>
		<defs>
			<rect id="SVGID_1_" width="200" height="200"/>
		</defs>
		<clipPath id="SVGID_2_">
			<use xlink:href="#SVGID_1_"  overflow="visible"/>
		</clipPath>
		<circle clip-path="url(#SVGID_2_)" fill="#FFFFFF" cx="100" cy="100" r="100"/>
	</g>
</g>
<g>
	<g>
		<defs>
			<rect id="SVGID_3_" width="200" height="200"/>
		</defs>
		<clipPath id="SVGID_4_">
			<use xlink:href="#SVGID_3_"  overflow="visible"/>
		</clipPath>
		<path clip-path="url(#SVGID_4_)" fill="#1DB458" d="M98.1,109.6c8.5,0,15.4-6.9,15.4-15.4s-6.9-15.4-15.4-15.4
			s-15.4,6.9-15.4,15.4S89.6,109.6,98.1,109.6z M98.1,117.3c12.7,0,23.1-10.3,23.1-23.1s-10.3-23.1-23.1-23.1S75,81.5,75,94.2
			S85.3,117.3,98.1,117.3z M61.5,42.3v23.1h3.8V42.3C65.4,42.3,61.5,42.3,61.5,42.3z M69.2,42.3v23.1H73V42.3
			C73,42.3,69.2,42.3,69.2,42.3z M133.6,50c-3.7,0-6.7,3-6.7,6.7v5.9c0,3.7,3,6.7,6.7,6.7h5.9c3.7,0,6.7-3,6.7-6.7v-5.9
			c0-3.7-3-6.7-6.7-6.7H133.6z M72.5,80.8H42.3V77l0,0c0,37.1,0,60.3,0,60.3c0,16.7,16.7,16.7,16.7,16.7h78.2c0,0,16.7,0,16.7-16.7
			V80.8V77h-32.7c-5.3-7-13.6-11.5-23.1-11.5S80.3,69.9,75,76.9H42.3c0-5.7,0-11.7,0-17.9c0-10.5,6.6-14.4,11.5-15.8v22.2h3.8v-23
			c0.8-0.1,1.3-0.1,1.3-0.1h78.2c0,0,16.7,0,16.7,16.7v21.8h-30.2c2.1,4,3.3,8.6,3.3,13.5c0,15.9-12.9,28.8-28.8,28.8
			s-28.8-12.9-28.8-28.8C69.2,89.4,70.4,84.8,72.5,80.8z"/>
	</g>
</g>
</svg>
