<?xml version="1.0" encoding="utf-8"?>
<!-- Generator: Adobe Illustrator 18.1.1, SVG Export Plug-In . SVG Version: 6.00 Build 0)  -->
<svg version="1.1" id="Layer_1" xmlns="http://www.w3.org/2000/svg" xmlns:xlink="http://www.w3.org/1999/xlink" x="0px" y="0px"
	 viewBox="0 0 512 512" enable-background="new 0 0 512 512" xml:space="preserve">
<g>
	<defs>
		<rect id="SVGID_1_" width="512" height="512"/>
	</defs>
	<clipPath id="SVGID_2_">
		<use xlink:href="#SVGID_1_"  overflow="visible"/>
	</clipPath>
	<circle clip-path="url(#SVGID_2_)" fill-rule="evenodd" clip-rule="evenodd" fill="#3366CC" cx="256" cy="256" r="256"/>
</g>
<g>
	<defs>
		<rect id="SVGID_3_" width="512" height="512"/>
	</defs>
	<clipPath id="SVGID_4_">
		<use xlink:href="#SVGID_3_"  overflow="visible"/>
	</clipPath>
	<path clip-path="url(#SVGID_4_)" fill-rule="evenodd" clip-rule="evenodd" fill="#FFFFFF" d="M265.5,374v-89
		c0-4.8,0.3-9.5,1.7-12.9c3.8-9.5,12.5-19.4,27.2-19.4c19.2,0,31.2,10.9,31.2,32.3v89h48.6v-91.3c0-48.9-26.1-71.7-61-71.7
		c-28.6,0-41.1,16-48.1,26.8l0.3-20.9H217c0.7,14.9,0,157.1,0,157.1H265.5z M186.7,162.5c-0.3-14-9.6-24.6-24.7-24.6
		c-15.1,0-25,10.6-25,24.6c0,13.7,9.6,24.6,24.4,24.6h0.3C177.1,187.1,186.7,176.1,186.7,162.5z M186.7,374V217.8h-48.3V374H186.7z"
		/>
</g>
</svg>
