<?xml version="1.0" encoding="utf-8"?>
<!-- Generator: Adobe Illustrator 18.1.1, SVG Export Plug-In . SVG Version: 6.00 Build 0)  -->
<svg version="1.1" xmlns="http://www.w3.org/2000/svg" xmlns:xlink="http://www.w3.org/1999/xlink" x="0px" y="0px"
	 viewBox="0 0 175 50" enable-background="new 0 0 175 50" xml:space="preserve">
<g id="Layer_2">
	<rect fill="#1DB458" width="175" height="50"/>
</g>
<g id="Layer_1">
	<line fill="none" x1="31" y1="7.1" x2="31" y2="42.9"/>
	<g>
		<path fill="none" stroke="#FFFFFF" stroke-miterlimit="10" d="M31,1.7c1.5,0,3,0,4.5-0.1c1.7,0,3.3-0.1,5-0.1c2,0,3.9,0.2,5.7,0.5
			c1.8,0.3,3.4,0.8,4.8,1.6c1.4,0.8,2.5,1.8,3.3,3.1c0.8,1.3,1.2,3,1.2,5c0,3-0.9,5.6-2.7,7.7c-1.8,2.1-4.3,3.4-7.4,3.9
			c1.8,0.1,3.6,0.4,5.2,0.8c1.7,0.4,3.1,1.1,4.4,2c1.3,0.9,2.3,2.1,3,3.6c0.7,1.5,1.1,3.3,1.1,5.5c0,1.9-0.3,3.7-0.9,5.4
			c-0.6,1.7-1.6,3.1-3,4.4c-1.4,1.2-3.1,2.2-5.2,2.9c-2.1,0.7-4.7,1.1-7.7,1.1h-4.7c-1.8,0-3.6,0-5.5,0c-0.3,0-0.7,0-1,0 M36,4.7
			c-0.3,0-0.7,0.1-1.1,0.2v17.9h2.2c2.2,0,4.1-0.2,5.5-0.7c1.4-0.5,2.6-1.2,3.4-2c0.8-0.8,1.4-1.8,1.7-2.8c0.3-1.1,0.5-2.1,0.5-3.3
			c0-1.8-0.3-3.3-1-4.5c-0.7-1.2-1.5-2.2-2.5-2.9c-1-0.7-2.1-1.2-3.4-1.5c-1.2-0.3-2.4-0.4-3.6-0.4C37.2,4.5,36.6,4.6,36,4.7z
			 M34.9,25.9v13.5c0,1.4,0.1,2.6,0.3,3.5c0.2,0.9,0.5,1.5,1,2c0.5,0.5,1.2,0.8,2,0.9c0.8,0.2,1.9,0.2,3.2,0.2c3.5,0,6-0.9,7.6-2.6
			c1.6-1.7,2.4-4.1,2.4-7.2c0-2.1-0.5-3.9-1.4-5.3c-0.9-1.4-2.1-2.4-3.5-3.2c-1.4-0.8-3-1.3-4.8-1.5c-1.8-0.3-3.5-0.4-5.2-0.4H34.9z
			"/>
	</g>
	<g>
		<path fill="none" stroke="#FFFFFF" stroke-miterlimit="10" d="M25.4,49.1c-1.4,0-2.8,0-4.1,0.1c-1.6,0-2.9,0.1-3.7,0.1
			c0-1.4,0.1-2.4,0.3-3c0.9,0,1.7-0.2,2.3-0.4s1.1-0.6,1.5-1.1c0.4-0.5,0.6-1.2,0.8-2.1c0.2-0.9,0.2-2,0.2-3.3V10.6
			c0-2.3-0.3-3.9-1-4.7c-0.7-0.8-1.9-1.3-3.8-1.4c-0.1-0.4-0.2-0.8-0.3-1.4c0-0.5-0.1-1.1-0.1-1.6c0.9,0.1,2.1,0.2,3.4,0.2
			c1.3,0,2.6,0,3.9,0c0.2,0,0.4,0,0.5,0 M25.4,1.2l0,48.4 M31,1.2l0,48.4"/>
		<line fill="none" x1="59.4" y1="-2.6" x2="59.4" y2="53.3"/>
	</g>
</g>
</svg>
