<?xml version="1.0" encoding="utf-8"?>
<!-- Generator: Adobe Illustrator 18.1.1, SVG Export Plug-In . SVG Version: 6.00 Build 0)  -->
<svg version="1.1" id="Layer_1" xmlns="http://www.w3.org/2000/svg" xmlns:xlink="http://www.w3.org/1999/xlink" x="0px" y="0px"
	 viewBox="0 0 512 512" enable-background="new 0 0 512 512" xml:space="preserve">
<g>
	<defs>
		<rect id="SVGID_1_" width="512" height="512"/>
	</defs>
	<clipPath id="SVGID_2_">
		<use xlink:href="#SVGID_1_"  overflow="visible"/>
	</clipPath>
	<circle clip-path="url(#SVGID_2_)" fill-rule="evenodd" clip-rule="evenodd" fill="#3366CC" cx="256" cy="256" r="256"/>
</g>
<g>
	<defs>
		<rect id="SVGID_3_" width="512" height="512"/>
	</defs>
	<clipPath id="SVGID_4_">
		<use xlink:href="#SVGID_3_"  overflow="visible"/>
	</clipPath>
	<path clip-path="url(#SVGID_4_)" fill-rule="evenodd" clip-rule="evenodd" fill="#FFFFFF" d="M279.5,333.5
		c56.4,0,94.6-52.5,94.6-122.7c0-53.1-44.1-102.5-111-102.5c-83.3,0-125.3,61-125.3,111.8c0,30.8,11.4,58.2,35.9,68.4
		c4,1.7,7.6,0.1,8.8-4.5c0.8-3.1,2.7-11.1,3.6-14.4c1.2-4.5,0.7-6.1-2.5-10c-7.1-8.5-11.6-19.5-11.6-35.1
		c0-45.2,33.1-85.7,86.3-85.7c47.1,0,73,29.4,73,68.6c0,51.6-22.4,95.2-55.6,95.2c-18.4,0-32.1-15.5-27.7-34.5
		c5.3-22.7,15.5-47.2,15.5-63.5c0-14.6-7.7-26.9-23.7-26.9c-18.8,0-33.8,19.8-33.8,46.3c0,16.9,5.6,28.3,5.6,28.3
		s-19.2,83-22.6,97.5c-3.1,13.2-3.5,27.8-3.1,40.1c1.3,11,12,20,21.2,7.9c6.5-10.6,13.5-24.1,17.1-37.5c2.2-8,12.3-49.2,12.3-49.2
		C242.8,323.1,260.6,333.5,279.5,333.5z"/>
</g>
</svg>
