<?xml version="1.0" encoding="utf-8"?>
<!-- Generator: Adobe Illustrator 18.1.1, SVG Export Plug-In . SVG Version: 6.00 Build 0)  -->
<svg version="1.1" id="Layer_1" xmlns="http://www.w3.org/2000/svg" xmlns:xlink="http://www.w3.org/1999/xlink" x="0px" y="0px"
	 viewBox="0 0 200 200" enable-background="new 0 0 200 200" xml:space="preserve">
<g>
	<g>
		<defs>
			<rect id="SVGID_1_" width="200" height="200"/>
		</defs>
		<clipPath id="SVGID_2_">
			<use xlink:href="#SVGID_1_"  overflow="visible"/>
		</clipPath>
		<circle clip-path="url(#SVGID_2_)" fill="#FFFFFF" cx="100" cy="100" r="100"/>
	</g>
</g>
<g>
	<g>
		<defs>
			<rect id="SVGID_3_" width="200" height="200"/>
		</defs>
		<clipPath id="SVGID_4_">
			<use xlink:href="#SVGID_3_"  overflow="visible"/>
		</clipPath>
		<path clip-path="url(#SVGID_4_)" fill="#1DB458" d="M109.2,130.3c22,0,37-20.5,37-47.9c0-20.7-17.2-40-43.4-40
			c-32.5,0-48.9,23.8-48.9,43.7c0,12,4.5,22.7,14,26.7c1.6,0.7,3,0,3.4-1.8c0.3-1.2,1.1-4.3,1.4-5.6c0.5-1.8,0.3-2.4-1-3.9
			c-2.8-3.3-4.5-7.6-4.5-13.7c0-17.7,12.9-33.5,33.7-33.5c18.4,0,28.5,11.5,28.5,26.8c0,20.2-8.7,37.2-21.7,37.2
			c-7.2,0-12.5-6.1-10.8-13.5c2.1-8.9,6.1-18.4,6.1-24.8c0-5.7-3-10.5-9.3-10.5c-7.3,0-13.2,7.7-13.2,18.1c0,6.6,2.2,11.1,2.2,11.1
			s-7.5,32.4-8.8,38.1c-1.2,5.2-1.4,10.9-1.2,15.7c0.5,4.3,4.7,7.8,8.3,3.1c2.5-4.1,5.3-9.4,6.7-14.6c0.9-3.1,4.8-19.2,4.8-19.2
			C94.8,126.2,101.8,130.3,109.2,130.3z"/>
	</g>
</g>
</svg>
