<?xml version="1.0" encoding="utf-8"?>
<!-- Generator: Adobe Illustrator 18.1.1, SVG Export Plug-In . SVG Version: 6.00 Build 0)  -->
<svg version="1.1" id="Layer_1" xmlns="http://www.w3.org/2000/svg" xmlns:xlink="http://www.w3.org/1999/xlink" x="0px" y="0px"
	 viewBox="0 0 512 512" enable-background="new 0 0 512 512" xml:space="preserve">
<g>
	<defs>
		<rect id="SVGID_1_" width="512" height="512"/>
	</defs>
	<clipPath id="SVGID_2_">
		<use xlink:href="#SVGID_1_"  overflow="visible"/>
	</clipPath>
	<circle clip-path="url(#SVGID_2_)" fill-rule="evenodd" clip-rule="evenodd" fill="#3366CC" cx="256" cy="256" r="256"/>
</g>
<g>
	<defs>
		<rect id="SVGID_3_" width="512" height="512"/>
	</defs>
	<clipPath id="SVGID_4_">
		<use xlink:href="#SVGID_3_"  overflow="visible"/>
	</clipPath>
	<path clip-path="url(#SVGID_4_)" fill-rule="evenodd" clip-rule="evenodd" fill="#FFFFFF" d="M350.3,157.3
		c-10.3-11.7-25-19.2-41.3-19.5c-31.2-0.5-56.6,25.9-56.6,59c0,4.7,0.5,9.3,1.5,13.7c-47-3-88.7-27.5-116.6-64.4
		c-4.9,8.8-7.7,19.2-7.7,30.2c0,21,10,39.6,25.2,50.5c-9.3-0.4-18-3.2-25.6-7.8c0,0.3,0,0.5,0,0.8c0,29.3,19.5,53.8,45.4,59.5
		c-4.7,1.3-9.7,2-14.9,2c-3.6,0-7.2-0.4-10.6-1.2c7.2,24,28.1,41.5,52.8,42.1c-19.4,16.1-43.7,25.6-70.2,25.6
		c-4.6,0-9.1-0.3-13.5-0.9c25,17.2,54.8,27.2,86.7,27.2c104,0,160.9-90.5,160.9-169c0-2.6-0.1-5.1-0.2-7.7
		c11.1-8.2,20.6-18.6,28.2-30.3c-10.1,4.6-21,7.6-32.5,8.9c11.7-7.2,20.6-18.7,24.9-32.5C375.3,150.1,363.2,154.9,350.3,157.3z"/>
</g>
</svg>
