<?xml version="1.0" encoding="utf-8"?>
<!-- Generator: Adobe Illustrator 18.1.1, SVG Export Plug-In . SVG Version: 6.00 Build 0)  -->
<svg version="1.1" id="Layer_1" xmlns="http://www.w3.org/2000/svg" xmlns:xlink="http://www.w3.org/1999/xlink" x="0px" y="0px"
	 viewBox="0 0 200 200" enable-background="new 0 0 200 200" xml:space="preserve">
<g>
	<g>
		<defs>
			<rect id="SVGID_1_" width="200" height="200"/>
		</defs>
		<clipPath id="SVGID_2_">
			<use xlink:href="#SVGID_1_"  overflow="visible"/>
		</clipPath>
		<circle clip-path="url(#SVGID_2_)" fill="#1DB458" cx="100" cy="100" r="100"/>
	</g>
</g>
<g>
	<g>
		<defs>
			<rect id="SVGID_3_" width="200" height="200"/>
		</defs>
		<clipPath id="SVGID_4_">
			<use xlink:href="#SVGID_3_"  overflow="visible"/>
		</clipPath>
		<path clip-path="url(#SVGID_4_)" fill="#FFFFFF" d="M136.8,61.4c-4-4.6-9.8-7.5-16.1-7.6c-12.2-0.2-22.1,10.1-22.1,23
			c0,1.8,0.2,3.6,0.6,5.4c-18.4-1.2-34.6-10.7-45.5-25.2c-1.9,3.4-3,7.5-3,11.8c0,8.2,3.9,15.5,9.8,19.7c-3.6-0.2-7-1.2-10-3
			c0,0.1,0,0.2,0,0.3c0,11.4,7.6,21,17.7,23.2c-1.8,0.5-3.8,0.8-5.8,0.8c-1.4,0-2.8-0.2-4.1-0.5c2.8,9.4,11,16.2,20.6,16.4
			c-7.6,6.3-17.1,10-27.4,10c-1.8,0-3.6-0.1-5.3-0.4c9.8,6.7,21.4,10.6,33.9,10.6c40.6,0,62.9-35.4,62.9-66c0-1,0-2-0.1-3
			c4.3-3.2,8-7.3,11-11.8c-3.9,1.8-8.2,3-12.7,3.5c4.6-2.8,8-7.3,9.7-12.7C146.6,58.6,141.9,60.5,136.8,61.4z"/>
	</g>
</g>
</svg>
